<?xml version="1.0" encoding="UTF-8" standalone="no"?>
<!-- Created with Inkscape (http://www.inkscape.org/) -->

<svg
   xmlns:dc="http://purl.org/dc/elements/1.1/"
   xmlns:cc="http://creativecommons.org/ns#"
   xmlns:rdf="http://www.w3.org/1999/02/22-rdf-syntax-ns#"
   xmlns:svg="http://www.w3.org/2000/svg"
   xmlns="http://www.w3.org/2000/svg"
   xmlns:sodipodi="http://sodipodi.sourceforge.net/DTD/sodipodi-0.dtd"
   xmlns:inkscape="http://www.inkscape.org/namespaces/inkscape"
   id="svg11694"
   version="1.1"
   inkscape:version="0.48.1 r9760"
   width="930"
   height="355"
   xml:space="preserve"
   sodipodi:docname="3dprintlab-logo2.pdf"><metadata
     id="metadata11700"><rdf:RDF><cc:Work
         rdf:about=""><dc:format>image/svg+xml</dc:format><dc:type
           rdf:resource="http://purl.org/dc/dcmitype/StillImage" /><dc:title></dc:title></cc:Work></rdf:RDF></metadata><defs
     id="defs11698"><clipPath
       clipPathUnits="userSpaceOnUse"
       id="clipPath11708"><path
         d="M 0,284 744,284 744,0 0,0 0,284 z"
         id="path11710" /></clipPath><clipPath
       clipPathUnits="userSpaceOnUse"
       id="clipPath11720"><path
         d="m 3.94092,228.342 233.60508,0 0,-196.5344 -233.60508,0 0,196.5344 z"
         id="path11722" /></clipPath></defs><sodipodi:namedview
     pagecolor="#ffffff"
     bordercolor="#666666"
     borderopacity="1"
     objecttolerance="10"
     gridtolerance="10"
     guidetolerance="10"
     inkscape:pageopacity="0"
     inkscape:pageshadow="2"
     inkscape:window-width="1440"
     inkscape:window-height="860"
     id="namedview11696"
     showgrid="false"
     inkscape:zoom="1.0602151"
     inkscape:cx="426.47813"
     inkscape:cy="236.2933"
     inkscape:window-x="0"
     inkscape:window-y="22"
     inkscape:window-maximized="1"
     inkscape:current-layer="g11702" /><g
     id="g11702"
     inkscape:groupmode="layer"
     inkscape:label="3dprintlab-logo2"
     transform="matrix(1.25,0,0,-1.25,0,355)"><g
       transform="matrix(0.99999977,-6.7199985e-4,-6.7199985e-4,-0.99999977,488.7734,85.4971)"
       style=""
       id="text11800"><path
         d="m 10.050002,-30.750007 0,10.850002 14.800004,0 0,4.850002 -14.800004,0 0,15.050003 -5.4000009,0 0,-35.600008 22.7500049,0 0,4.850001 -17.350004,0"
         style="font-size:50.00001144px;font-variant:normal;font-weight:500;font-stretch:normal;writing-mode:lr-tb;fill:#f8a30d;fill-opacity:1;fill-rule:nonzero;stroke:none;font-family:Unient DIN CE -Medium;-inkscape-font-specification:UnientDINCE-Medium"
         id="path11830" /><path
         d="m 33.900007,0 0,-35.600008 5.400001,0 0,35.600008 -5.400001,0"
         style="font-size:50.00001144px;font-variant:normal;font-weight:500;font-stretch:normal;writing-mode:lr-tb;fill:#f8a30d;fill-opacity:1;fill-rule:nonzero;stroke:none;font-family:Unient DIN CE -Medium;-inkscape-font-specification:UnientDINCE-Medium"
         id="path11832" /><path
         d="m 60.650012,-30.750007 0,30.750007 -5.400001,0 0,-30.750007 -9.800002,0 0,-4.850001 25.000005,0 0,4.850001 -9.800002,0"
         style="font-size:50.00001144px;font-variant:normal;font-weight:500;font-stretch:normal;writing-mode:lr-tb;fill:#f8a30d;fill-opacity:1;fill-rule:nonzero;stroke:none;font-family:Unient DIN CE -Medium;-inkscape-font-specification:UnientDINCE-Medium"
         id="path11834" /><path
         d="m 112.80003,-10.650002 c -0.30003,1.7666755 -0.83337,3.333341 -1.6,4.7000006 -0.73336,1.3666716 -1.6667,2.5166707 -2.8,3.4500008 -1.10003,0.9333351 -2.36669,1.6333346 -3.80001,2.10000051 -1.40002,0.46666671 -2.90001,0.69999986 -4.5,0.70000016 -1.900011,-3e-7 -3.633343,-0.31666672 -5.199998,-0.95000022 -1.533343,-0.66666555 -2.916675,-1.61666475 -4.150001,-2.85000065 -0.866672,-0.8666625 -1.533339,-1.7833285 -2,-2.7500006 -0.466671,-0.9666597 -0.816671,-2.0166589 -1.05,-3.1500008 -0.200004,-1.1666568 -0.31667,-2.4333218 -0.35,-3.8000008 -0.03334,-1.366652 -0.05,-2.899985 -0.05,-4.600001 -4e-6,-1.699981 0.01666,-3.233313 0.05,-4.600001 0.03333,-1.366643 0.149996,-2.616642 0.35,-3.750001 0.233329,-1.16664 0.583329,-2.233305 1.05,-3.200001 0.466661,-0.966636 1.133328,-1.883302 2,-2.75 1.233326,-1.233301 2.616658,-2.166633 4.150001,-2.800001 1.566655,-0.666631 3.299987,-0.999964 5.199998,-1 3.33332,3.6e-5 6.11665,0.933368 8.35001,2.8 2.26664,1.833365 3.71663,4.55003 4.35,8.150002 l -5.5,0 c -0.43336,-1.799973 -1.25003,-3.266639 -2.45001,-4.400001 -1.16668,-1.133303 -2.75001,-1.699969 -4.75,-1.7 -1.066678,3.1e-5 -2.050011,0.200031 -2.949997,0.6 -0.900013,0.366697 -1.666679,0.883363 -2.300001,1.55 -0.433344,0.466696 -0.80001,0.983362 -1.1,1.550001 -0.266676,0.53336 -0.483343,1.216693 -0.65,2.05 -0.133342,0.800025 -0.233342,1.800024 -0.3,3.000001 -0.06668,1.200021 -0.100009,2.70002 -0.1,4.500001 -9e-6,1.800016 0.03332,3.300015 0.1,4.500001 0.06666,1.200012 0.166658,2.216678 0.3,3.050001 0.166657,0.8000093 0.383324,1.4833421 0.65,2.0500001 0.29999,0.5333411 0.666656,1.0333408 1.1,1.5000004 0.633322,0.6666728 1.399988,1.2000057 2.300001,1.6000003 0.899986,0.3666715 1.883319,0.5500047 2.949997,0.5500002 1.99999,4.5e-6 3.59998,-0.5666617 4.8,-1.7000004 1.19998,-1.1333262 2.01665,-2.5999918 2.45001,-4.4000006 l 5.45,0 m -11.00001,-28.400007 -4.299997,0 -6.450002,-8.050002 4.250001,0 4.350001,4.850001 4.349997,-4.850001 4.25001,0 -6.45001,8.050002"
         style="font-size:50.00001144px;font-variant:normal;font-weight:500;font-stretch:normal;writing-mode:lr-tb;fill:#f8a30d;fill-opacity:1;fill-rule:nonzero;stroke:none;font-family:Unient DIN CE -Medium;-inkscape-font-specification:UnientDINCE-Medium"
         id="path11836" /><path
         d="m 131.50003,0 -4.2,0 -11.7,-35.600008 5.6,0 8.2,25.9000058 8.2,-25.9000058 5.70001,0 L 131.50003,0"
         style="font-size:50.00001144px;font-variant:normal;font-weight:500;font-stretch:normal;writing-mode:lr-tb;fill:#f8a30d;fill-opacity:1;fill-rule:nonzero;stroke:none;font-family:Unient DIN CE -Medium;-inkscape-font-specification:UnientDINCE-Medium"
         id="path11838" /><path
         d="m 173.20004,-12.000003 c -3e-5,1.833344 -0.33336,3.5166762 -1,5.0500014 -0.63336,1.5000058 -1.53336,2.7833381 -2.7,3.8500009 -1.13336,1.0666689 -2.48336,1.9000016 -4.05,2.50000056 -1.56669,0.60000014 -3.25002,0.89999991 -5.05,0.90000021 -1.80002,-3e-7 -3.48335,-0.30000007 -5.05,-0.90000021 -1.56668,-0.59999896 -2.91668,-1.43333166 -4.05,-2.50000056 -1.13334,-1.0666628 -2.03334,-2.3499951 -2.70001,-3.8500009 -0.63333,-1.5333252 -0.95,-3.2166574 -0.95,-5.0500014 l 0,-23.600005 5.40001,0 0,23.350005 c -1e-5,2.4000106 0.66665,4.2833425 2,5.6500015 1.33332,1.3666722 3.11665,2.050005 5.35,2.0500005 2.23331,4.5e-6 4.01664,-0.6833283 5.35,-2.0500005 1.36664,-1.366659 2.04997,-3.2499909 2.05,-5.6500015 l 0,-23.350005 5.4,0 0,23.600005"
         style="font-size:50.00001144px;font-variant:normal;font-weight:500;font-stretch:normal;writing-mode:lr-tb;fill:#f8a30d;fill-opacity:1;fill-rule:nonzero;stroke:none;font-family:Unient DIN CE -Medium;-inkscape-font-specification:UnientDINCE-Medium"
         id="path11840" /><path
         d="m 194.00004,-30.750007 0,30.750007 -5.4,0 0,-30.750007 -9.80001,0 0,-4.850001 25.00001,0 0,4.850001 -9.8,0"
         style="font-size:50.00001144px;font-variant:normal;font-weight:500;font-stretch:normal;writing-mode:lr-tb;fill:#f8a30d;fill-opacity:1;fill-rule:nonzero;stroke:none;font-family:Unient DIN CE -Medium;-inkscape-font-specification:UnientDINCE-Medium"
         id="path11842" /></g><g
       transform="matrix(0.99998607,0.00527857,0.00527857,-0.99998607,242.1077,143.6365)"
       style=""
       id="text11804"><path
         d="m 33.459989,-13.999995 c -3.3e-5,2.38001 -0.420033,4.4800076 -1.26,6.2999975 -0.793364,1.8200053 -1.890029,3.33667 -3.289998,4.5499985 -1.353361,1.2133349 -2.963359,2.1233337 -4.829999,2.72999914 -1.820022,0.60666628 -3.780019,0.90999921 -5.879998,0.9099997 -1.960016,-4.9e-7 -3.850013,-0.25666682 -5.669998,-0.76999975 C 10.709986,-0.83999889 9.0999879,-1.6799978 7.6999975,-2.7999991 6.2999916,-3.9666614 5.1566598,-5.4133261 4.2699986,-7.1399977 3.4299954,-8.9133215 2.9866627,-11.036652 2.939999,-13.509996 l 7.139998,0 c 0.04666,1.353345 0.303323,2.496677 0.769999,3.429999 0.466656,0.9333425 1.073322,1.7266748 1.82,2.3799995 0.746653,0.6066736 1.586652,1.0500063 2.519999,1.3299996 0.979984,0.280006 1.983316,0.4200058 3.009999,0.4199998 2.379979,6e-6 4.316643,-0.6999931 5.809998,-2.0999993 1.539974,-1.4466567 2.309973,-3.4999876 2.309999,-6.1599976 -2.6e-5,-2.519983 -0.700025,-4.503314 -2.099999,-5.949998 -1.353356,-1.493312 -3.43002,-2.239977 -6.229998,-2.24 l -1.189999,0 0,-6.229998 1.189999,0 c 2.659979,2.9e-5 4.573309,-0.676637 5.739998,-2.029999 1.213308,-1.399967 1.819974,-3.243298 1.82,-5.529998 -2.6e-5,-2.519961 -0.700025,-4.433291 -2.1,-5.739998 -1.400021,-1.306623 -3.150019,-1.959956 -5.249998,-1.96 -2.240015,4.4e-5 -4.013346,0.630043 -5.319998,1.89 -1.260011,1.26004 -1.983344,3.010038 -2.17,5.249998 l -7.1399972,0 c 0.09333,-2.09996 0.5366624,-3.989958 1.3299996,-5.669998 0.7933274,-1.679955 1.843326,-3.103287 3.149999,-4.269999 1.3066569,-1.166618 2.8233216,-2.053284 4.5499986,-2.659999 1.726652,-0.653283 3.593316,-0.979949 5.599998,-0.98 2.099979,5.1e-5 4.036643,0.35005 5.809998,1.05 1.773307,0.653382 3.289972,1.610047 4.549999,2.869999 1.306636,1.213378 2.309968,2.683376 3.009999,4.409999 0.746634,1.68004 1.119967,3.546704 1.119999,5.599998 -3.2e-5,2.660033 -0.560032,4.876696 -1.679999,6.649998 -1.073363,1.726694 -2.590028,3.056692 -4.549999,3.989998 2.146638,0.933358 3.849969,2.35669 5.109999,4.269999 1.259966,1.913352 1.889966,4.410016 1.889999,7.489998"
         style="font-size:69.99997711px;font-variant:normal;font-weight:500;font-stretch:normal;writing-mode:lr-tb;fill:#231f20;fill-opacity:1;fill-rule:nonzero;stroke:none;font-family:Unient DIN CE -Medium;-inkscape-font-specification:UnientDINCE-Medium"
         id="path11809" /><path
         d="m 72.379976,-25.269992 c -3.5e-5,-3.49997 -0.116701,-6.416633 -0.35,-8.749997 -0.233367,-2.333296 -1.003366,-4.223294 -2.309999,-5.669998 -2.053363,-2.239957 -4.876692,-3.359956 -8.469998,-3.359999 l -9.169997,0 0,36.2599882 9.169997,0 c 3.593306,6.8e-6 6.416635,-1.1199917 8.469998,-3.3599992 1.306633,-1.446654 2.076632,-3.453318 2.309999,-6.019998 0.233299,-2.566647 0.349965,-5.599976 0.35,-9.099997 m 7.559997,0 c -4.2e-5,1.820023 -0.02338,3.663354 -0.07,5.529998 -4.2e-5,1.866684 -0.140041,3.686682 -0.42,5.459999 -0.280041,1.773345 -0.77004,3.476676 -1.469999,5.109998 -0.700039,1.6333403 -1.726705,3.1266717 -3.079999,4.4799985 -1.586702,1.5866693 -3.476699,2.7766677 -5.669998,3.5699989 C 67.083282,-0.37333284 64.679951,0 62.019979,0 l -17.499994,0 0,-49.839984 17.499994,0 c 2.659972,5e-5 5.063303,0.396716 7.209998,1.19 2.193299,0.746714 4.083296,1.913379 5.669998,3.499999 1.353294,1.353376 2.37996,2.823374 3.079999,4.409998 0.699959,1.540039 1.189958,3.17337 1.469999,4.899999 0.279959,1.680033 0.419958,3.406698 0.42,5.179998 0.04662,1.773362 0.06996,3.570026 0.07,5.389998"
         style="font-size:69.99997711px;font-variant:normal;font-weight:500;font-stretch:normal;writing-mode:lr-tb;fill:#231f20;fill-opacity:1;fill-rule:nonzero;stroke:none;font-family:Unient DIN CE -Medium;-inkscape-font-specification:UnientDINCE-Medium"
         id="path11811" /><path
         d="m 136.63995,-34.719989 c -3e-5,-2.659961 -0.8167,-4.713292 -2.45,-6.159998 -1.58669,-1.446624 -3.71002,-2.169956 -6.36999,-2.169999 l -10.92,0 0,16.589995 10.92,0 c 2.65997,2.6e-5 4.7833,-0.699973 6.36999,-2.1 1.6333,-1.446636 2.44997,-3.499966 2.45,-6.159998 m 7.56,0 c -4e-5,2.193365 -0.37337,4.223363 -1.12,6.089998 -0.74671,1.820027 -1.82004,3.406691 -3.22,4.759999 -1.40003,1.306689 -3.08003,2.356687 -5.04,3.149999 -1.96003,0.746686 -4.15336,1.120019 -6.57999,1.119999 l -11.34,0 0,19.599994 -7.56,0 0,-49.839984 18.9,0 c 2.42663,5e-5 4.61996,0.396716 6.57999,1.19 1.95997,0.746714 3.63997,1.796713 5.04,3.149999 1.39996,1.30671 2.47329,2.893375 3.22,4.759998 0.74663,1.866705 1.11996,3.873369 1.12,6.019998"
         style="font-size:69.99997711px;font-variant:normal;font-weight:500;font-stretch:normal;writing-mode:lr-tb;fill:#231f20;fill-opacity:1;fill-rule:nonzero;stroke:none;font-family:Unient DIN CE -Medium;-inkscape-font-specification:UnientDINCE-Medium"
         id="path11813" /><path
         d="m 181.29994,-35.209988 c -3e-5,-2.519962 -0.79337,-4.456626 -2.38,-5.809999 -1.54003,-1.35329 -3.57003,-2.029956 -6.09,-2.029999 l -11.19999,0 0,15.609995 11.19999,0 c 2.51997,2.7e-5 4.54997,-0.653305 6.09,-1.959999 1.58663,-1.353303 2.37997,-3.289967 2.38,-5.809998 M 181.57994,0 l -10.5,-20.999993 -9.44999,0 0,20.999993 -7.56,0 0,-49.839984 19.31999,0 c 2.37997,5e-5 4.5033,0.373383 6.37,1.12 1.9133,0.700048 3.54663,1.70338 4.9,3.009999 1.35329,1.260044 2.37996,2.800042 3.08,4.619998 0.74662,1.773373 1.11996,3.710037 1.12,5.809999 -4e-5,3.593363 -0.95671,6.510026 -2.87,8.749997 -1.91337,2.193357 -4.27003,3.686688 -7.07,4.479998 L 190.39994,0 l -8.82,0"
         style="font-size:69.99997711px;font-variant:normal;font-weight:500;font-stretch:normal;writing-mode:lr-tb;fill:#231f20;fill-opacity:1;fill-rule:nonzero;stroke:none;font-family:Unient DIN CE -Medium;-inkscape-font-specification:UnientDINCE-Medium"
         id="path11815" /><path
         d="m 200.61992,0 0,-49.839984 7.56,0 0,49.839984 -7.56,0"
         style="font-size:69.99997711px;font-variant:normal;font-weight:500;font-stretch:normal;writing-mode:lr-tb;fill:#231f20;fill-opacity:1;fill-rule:nonzero;stroke:none;font-family:Unient DIN CE -Medium;-inkscape-font-specification:UnientDINCE-Medium"
         id="path11817" /><path
         d="m 252.48991,0 -23.02999,-35.069989 0,35.069989 -7.56,0 0,-49.839984 6.93,0 23.02999,34.999989 0,-34.999989 7.56,0 0,49.839984 -6.93,0"
         style="font-size:69.99997711px;font-variant:normal;font-weight:500;font-stretch:normal;writing-mode:lr-tb;fill:#231f20;fill-opacity:1;fill-rule:nonzero;stroke:none;font-family:Unient DIN CE -Medium;-inkscape-font-specification:UnientDINCE-Medium"
         id="path11819" /><path
         d="m 290.00991,-43.049986 0,43.049986 -7.56,0 0,-43.049986 -13.72,0 0,-6.789998 34.99999,0 0,6.789998 -13.71999,0"
         style="font-size:69.99997711px;font-variant:normal;font-weight:500;font-stretch:normal;writing-mode:lr-tb;fill:#231f20;fill-opacity:1;fill-rule:nonzero;stroke:none;font-family:Unient DIN CE -Medium;-inkscape-font-specification:UnientDINCE-Medium"
         id="path11821" /><path
         d="m 330.53987,0 0,-49.839984 7.56,0 0,43.0499862 24.00999,0 0,6.7899978 -31.56999,0"
         style="font-size:69.99997711px;font-variant:normal;font-weight:500;font-stretch:normal;writing-mode:lr-tb;fill:#231f20;fill-opacity:1;fill-rule:nonzero;stroke:none;font-family:Unient DIN CE -Medium;-inkscape-font-specification:UnientDINCE-Medium"
         id="path11823" /><path
         d="m 386.95987,-38.569987 -7.76999,22.119992 15.32999,0 -7.56,-22.119992 M 400.04987,0 l -3.43,-10.009997 -19.66999,0 -3.43,10.009997 -8.05,0 18.27,-49.839984 6.08999,0 18.27,49.839984 -8.05,0"
         style="font-size:69.99997711px;font-variant:normal;font-weight:500;font-stretch:normal;writing-mode:lr-tb;fill:#231f20;fill-opacity:1;fill-rule:nonzero;stroke:none;font-family:Unient DIN CE -Medium;-inkscape-font-specification:UnientDINCE-Medium"
         id="path11825" /><path
         d="m 442.74985,-35.909988 c -3e-5,-2.379961 -0.7467,-4.153292 -2.24,-5.319999 -1.49336,-1.21329 -3.45336,-1.819956 -5.87999,-1.819999 l -11.2,0 0,14.279995 11.2,0 c 2.42663,2.9e-5 4.38663,-0.583303 5.87999,-1.749999 1.4933,-1.213301 2.23997,-3.009966 2.24,-5.389998 m 0.77,21.489993 c -3e-5,-2.239983 -0.70003,-4.05998 -2.1,-5.459998 -1.40003,-1.399979 -3.43002,-2.099978 -6.09,-2.1 l -11.89999,0 0,15.1899952 11.89999,0 c 2.65998,6.8e-6 4.68997,-0.6999923 6.09,-2.0999993 1.39997,-1.4466559 2.09997,-3.2899869 2.1,-5.5299979 m 7.56,0.35 c -4e-5,2.286677 -0.37337,4.3166746 -1.12,6.0899976 -0.74671,1.7266724 -1.7967,3.1966704 -3.15,4.4099986 -1.3067,1.1666687 -2.89337,2.0533341 -4.76,2.6599991 C 440.22982,-0.30333293 438.22316,0 436.02985,0 l -20.15999,0 0,-49.839984 19.38999,0 c 4.66664,5e-5 8.32997,1.213382 10.99,3.639999 2.70663,2.42671 4.05996,5.763372 4.06,10.009997 -4e-5,1.353368 -0.21004,2.613366 -0.63,3.779999 -0.37337,1.120031 -0.88671,2.146696 -1.54,3.079999 -0.6067,0.886694 -1.3067,1.656693 -2.1,2.309999 -0.79337,0.606693 -1.61003,1.073359 -2.45,1.399999 0.97997,0.373359 1.9133,0.886691 2.8,1.54 0.88663,0.653356 1.67996,1.470022 2.38,2.449999 0.69996,0.933354 1.25996,2.030019 1.68,3.289999 0.41996,1.260017 0.62996,2.683348 0.63,4.269999"
         style="font-size:69.99997711px;font-variant:normal;font-weight:500;font-stretch:normal;writing-mode:lr-tb;fill:#231f20;fill-opacity:1;fill-rule:nonzero;stroke:none;font-family:Unient DIN CE -Medium;-inkscape-font-specification:UnientDINCE-Medium"
         id="path11827" /></g><g
       id="g11561"
       transform="translate(-19.703189,7.2385986)"
       inkscape:export-filename="/home/churchyard/tmp/skola/reprap/logotyp/kapka16.png"
       inkscape:export-xdpi="5.4159918"
       inkscape:export-ydpi="5.4159918"><path
         d="m 222.6294,55.5107 c 36.342,33.628 36.34,88.152 0,121.779 -0.111,0.103 -0.232,0.185 -0.342,0.287 l -65.32,60.444 -62.676,-57.999 c -1.086,-0.914 -2.217,-1.76 -3.266,-2.732 -36.341,-33.629 -36.341,-88.151 0,-121.779 36.34,-33.631 95.262,-33.631 131.604,0"
         style="fill:#f8a30d;fill-opacity:1;fill-rule:nonzero;stroke:none"
         id="path22"
         inkscape:connector-curvature="0" /><path
         inkscape:connector-curvature="0"
         id="path11410"
         transform="matrix(0.8,0,0,-0.8,0,330)"
         d="m 232.71875,148.78125 c -8.21125,4.43762 -13.85653,13.02696 -14.0625,22.96875 l -56.71875,10.03125 c -3.91622,-8.29334 -11.97224,-14.22752 -21.5,-15.1875 l -22.5625,20.875 c -1.3575,1.1425 -2.7825,2.19125 -4.09375,3.40625 -0.96094,0.88923 -1.89222,1.80664 -2.8125,2.71875 0.10522,7.06093 2.93714,13.46422 7.5,18.1875 l -38.5,62.34375 c 0.453727,6.37082 1.51464,12.70832 3.1875,18.9375 l 45.625,-74.625 c 2.79708,0.99177 5.80045,1.53125 8.9375,1.53125 0.56705,0 1.12921,-0.059 1.6875,-0.0937 l 14.21875,45.5625 c -10.06625,3.84405 -17.21875,13.58302 -17.21875,25 0,0.81865 0.053,1.63758 0.125,2.4375 l -47.8125,15.75 c 1.727056,3.81655 3.714156,7.53882 5.9375,11.1875 l 45.875,-15.09375 c 4.74139,7.49913 13.12786,12.5 22.65625,12.5 2.18911,0 4.30727,-0.28538 6.34375,-0.78125 l 5.59375,18.09375 c -3.4136,2.41928 -6.21693,5.62427 -8.1875,9.34375 L 101.34375,329.5313 c 3.67976,4.75949 7.81835,9.31944 12.4375,13.59375 0.97697,0.90414 1.96623,1.791 2.96875,2.65625 l 47.0625,10.25 c -0.001,0.11488 0,0.22852 0,0.34375 0,5.66456 1.74318,10.92647 4.75,15.25 13.88292,3.10903 28.26264,3.80278 42.375,2.125 3.99405,-4.67328 6.40625,-10.74208 6.40625,-17.375 0,-1.11776 -0.0857,-2.23073 -0.21875,-3.3125 l 55.5625,-19.5 c 1.86672,3.11241 4.35225,5.8118 7.28125,7.9375 13.7107,-13.21782 23.09444,-28.85729 28.09375,-45.40625 -3.71233,-1.94423 -7.92681,-3.03125 -12.40625,-3.03125 -0.78401,0 -1.54561,0.0277 -2.3125,0.0937 l -33.6875,-98.21875 c 4.47196,-2.82127 8.02431,-6.94328 10.1875,-11.8125 l -37.125,-34.34375 z m -11.4375,35.15625 c 1.21666,2.51826 2.84308,4.80911 4.75,6.8125 l -53.1875,74.75 c -2.11257,-0.81945 -4.35453,-1.39721 -6.6875,-1.65625 L 151.34375,216.25 c 7.63723,-4.52577 12.79981,-12.76902 13.09375,-22.21875 l 56.84375,-10.09375 z m 15.34375,13.625 c 2.75751,0.96045 5.6964,1.5 8.78125,1.5 0.88191,0 1.76497,-0.0416 2.625,-0.125 L 281.3125,297.25 c -3.94534,2.51471 -7.1972,6.02277 -9.375,10.1875 l -82,-17.25 c -0.0613,-6.65395 -2.58149,-12.69389 -6.65625,-17.34375 L 236.625,197.5625 z m -49.59375,104.96875 81.875,17.21875 c -5e-5,0.021 0,0.0415 0,0.0625 0,0.62973 0.0197,1.25614 0.0625,1.875 l -56.28125,19.59375 c -4.81987,-7.04635 -12.91215,-11.6875 -22.09375,-11.6875 -1.28895,0 -2.57221,0.10508 -3.8125,0.28125 l -6,-19.3125 c 2.56423,-2.24709 4.69321,-4.96158 6.25,-8.03125 z"
         style="opacity:0.7;fill:#ffffff;fill-opacity:1" /></g></g></svg>