<?xml version="1.0" encoding="UTF-8" standalone="no"?>
<!-- Created with Inkscape (http://www.inkscape.org/) -->

<svg
   xmlns:dc="http://purl.org/dc/elements/1.1/"
   xmlns:cc="http://creativecommons.org/ns#"
   xmlns:rdf="http://www.w3.org/1999/02/22-rdf-syntax-ns#"
   xmlns:svg="http://www.w3.org/2000/svg"
   xmlns="http://www.w3.org/2000/svg"
   xmlns:sodipodi="http://sodipodi.sourceforge.net/DTD/sodipodi-0.dtd"
   xmlns:inkscape="http://www.inkscape.org/namespaces/inkscape"
   id="svg2"
   version="1.1"
   inkscape:version="0.48.1 r9760"
   width="259.67001"
   height="259.67001"
   xml:space="preserve"
   sodipodi:docname="3dprintlab-kapka.svg"
   inkscape:export-filename="/home/churchyard/tmp/skola/reprap/logotyp/kapka16.png"
   inkscape:export-xdpi="5.5454998"
   inkscape:export-ydpi="5.5454998"><metadata
     id="metadata8"><rdf:RDF><cc:Work
         rdf:about=""><dc:format>image/svg+xml</dc:format><dc:type
           rdf:resource="http://purl.org/dc/dcmitype/StillImage" /><dc:title></dc:title></cc:Work></rdf:RDF></metadata><defs
     id="defs6"><clipPath
       clipPathUnits="userSpaceOnUse"
       id="clipPath16"><path
         d="M 0,330 322,330 322,0 0,0 0,330 z"
         id="path18"
         inkscape:connector-curvature="0" /></clipPath><clipPath
       clipPathUnits="userSpaceOnUse"
       id="clipPath28"><path
         d="m 23.6084,221.342 233.6046,0 0,-196.5344 -233.6046,0 0,196.5344 z"
         id="path30"
         inkscape:connector-curvature="0" /></clipPath><clipPath
       clipPathUnits="userSpaceOnUse"
       id="clipPath120"><path
         d="M 0,330 322,330 322,0 0,0 0,330 z"
         id="path122"
         inkscape:connector-curvature="0" /></clipPath></defs><sodipodi:namedview
     pagecolor="#ffffff"
     bordercolor="#666666"
     borderopacity="1"
     objecttolerance="10"
     gridtolerance="10"
     guidetolerance="10"
     inkscape:pageopacity="0"
     inkscape:pageshadow="2"
     inkscape:window-width="1440"
     inkscape:window-height="860"
     id="namedview4"
     showgrid="false"
     inkscape:zoom="1.5321212"
     inkscape:cx="-0.49729496"
     inkscape:cy="157.47813"
     inkscape:window-x="0"
     inkscape:window-y="22"
     inkscape:window-maximized="1"
     inkscape:current-layer="g10"
     fit-margin-top="0"
     fit-margin-left="0"
     fit-margin-right="0"
     fit-margin-bottom="0" /><g
     id="g10"
     inkscape:groupmode="layer"
     inkscape:label="3dprintlab-logo1"
     transform="matrix(1.25,0,0,-1.25,-79.712062,303.5293)"><g
       id="g11561"
       transform="translate(10.810255,4.8)"
       inkscape:export-filename="/home/churchyard/tmp/skola/reprap/logotyp/kapka16.png"
       inkscape:export-xdpi="5.4159918"
       inkscape:export-ydpi="5.4159918"><path
         d="m 222.6294,55.5107 c 36.342,33.628 36.34,88.152 0,121.779 -0.111,0.103 -0.232,0.185 -0.342,0.287 l -65.32,60.444 -62.676,-57.999 c -1.086,-0.914 -2.217,-1.76 -3.266,-2.732 -36.341,-33.629 -36.341,-88.151 0,-121.779 36.34,-33.631 95.262,-33.631 131.604,0"
         style="fill:#f8a30d;fill-opacity:1;fill-rule:nonzero;stroke:none"
         id="path22"
         inkscape:connector-curvature="0" /><path
         inkscape:connector-curvature="0"
         id="path11410"
         transform="matrix(0.8,0,0,-0.8,0,330)"
         d="m 232.71875,148.78125 c -8.21125,4.43762 -13.85653,13.02696 -14.0625,22.96875 l -56.71875,10.03125 c -3.91622,-8.29334 -11.97224,-14.22752 -21.5,-15.1875 l -22.5625,20.875 c -1.3575,1.1425 -2.7825,2.19125 -4.09375,3.40625 -0.96094,0.88923 -1.89222,1.80664 -2.8125,2.71875 0.10522,7.06093 2.93714,13.46422 7.5,18.1875 l -38.5,62.34375 c 0.453727,6.37082 1.51464,12.70832 3.1875,18.9375 l 45.625,-74.625 c 2.79708,0.99177 5.80045,1.53125 8.9375,1.53125 0.56705,0 1.12921,-0.059 1.6875,-0.0937 l 14.21875,45.5625 c -10.06625,3.84405 -17.21875,13.58302 -17.21875,25 0,0.81865 0.053,1.63758 0.125,2.4375 l -47.8125,15.75 c 1.727056,3.81655 3.714156,7.53882 5.9375,11.1875 l 45.875,-15.09375 c 4.74139,7.49913 13.12786,12.5 22.65625,12.5 2.18911,0 4.30727,-0.28538 6.34375,-0.78125 l 5.59375,18.09375 c -3.4136,2.41928 -6.21693,5.62427 -8.1875,9.34375 L 101.34375,329.5313 c 3.67976,4.75949 7.81835,9.31944 12.4375,13.59375 0.97697,0.90414 1.96623,1.791 2.96875,2.65625 l 47.0625,10.25 c -0.001,0.11488 0,0.22852 0,0.34375 0,5.66456 1.74318,10.92647 4.75,15.25 13.88292,3.10903 28.26264,3.80278 42.375,2.125 3.99405,-4.67328 6.40625,-10.74208 6.40625,-17.375 0,-1.11776 -0.0857,-2.23073 -0.21875,-3.3125 l 55.5625,-19.5 c 1.86672,3.11241 4.35225,5.8118 7.28125,7.9375 13.7107,-13.21782 23.09444,-28.85729 28.09375,-45.40625 -3.71233,-1.94423 -7.92681,-3.03125 -12.40625,-3.03125 -0.78401,0 -1.54561,0.0277 -2.3125,0.0937 l -33.6875,-98.21875 c 4.47196,-2.82127 8.02431,-6.94328 10.1875,-11.8125 l -37.125,-34.34375 z m -11.4375,35.15625 c 1.21666,2.51826 2.84308,4.80911 4.75,6.8125 l -53.1875,74.75 c -2.11257,-0.81945 -4.35453,-1.39721 -6.6875,-1.65625 L 151.34375,216.25 c 7.63723,-4.52577 12.79981,-12.76902 13.09375,-22.21875 l 56.84375,-10.09375 z m 15.34375,13.625 c 2.75751,0.96045 5.6964,1.5 8.78125,1.5 0.88191,0 1.76497,-0.0416 2.625,-0.125 L 281.3125,297.25 c -3.94534,2.51471 -7.1972,6.02277 -9.375,10.1875 l -82,-17.25 c -0.0613,-6.65395 -2.58149,-12.69389 -6.65625,-17.34375 L 236.625,197.5625 z m -49.59375,104.96875 81.875,17.21875 c -5e-5,0.021 0,0.0415 0,0.0625 0,0.62973 0.0197,1.25614 0.0625,1.875 l -56.28125,19.59375 c -4.81987,-7.04635 -12.91215,-11.6875 -22.09375,-11.6875 -1.28895,0 -2.57221,0.10508 -3.8125,0.28125 l -6,-19.3125 c 2.56423,-2.24709 4.69321,-4.96158 6.25,-8.03125 z"
         style="opacity:0.7;fill:#ffffff;fill-opacity:1" /></g></g></svg>