<?xml version="1.0" encoding="utf-8"?>
<!-- Generator: Adobe Illustrator 16.0.4, SVG Export Plug-In . SVG Version: 6.00 Build 0)  -->
<!DOCTYPE svg PUBLIC "-//W3C//DTD SVG 1.1//EN" "http://www.w3.org/Graphics/SVG/1.1/DTD/svg11.dtd">
<svg version="1.1"
	 id="svg2" xmlns:dc="http://purl.org/dc/elements/1.1/" xmlns:cc="http://creativecommons.org/ns#" xmlns:rdf="http://www.w3.org/1999/02/22-rdf-syntax-ns#" xmlns:svg="http://www.w3.org/2000/svg" xmlns:sodipodi="http://sodipodi.sourceforge.net/DTD/sodipodi-0.dtd" xmlns:inkscape="http://www.inkscape.org/namespaces/inkscape" inkscape:export-ydpi="90" inkscape:export-xdpi="90" inkscape:export-filename="/home/churchyard/tmp/skola/reprap/logotyp/3dprintlab-logo1.png" sodipodi:docname="3dprintlab-logo1.svg" inkscape:version="0.48.1 r9760"
	 xmlns="http://www.w3.org/2000/svg" xmlns:xlink="http://www.w3.org/1999/xlink" x="0px" y="0px" width="354.939px"
	 height="354.941px" viewBox="0 0 354.939 354.941" enable-background="new 0 0 354.939 354.941" xml:space="preserve">
<sodipodi:namedview  fit-margin-top="0" fit-margin-left="0" inkscape:cy="163.47814" inkscape:cx="139.56076" inkscape:zoom="1.5321212" showgrid="false" guidetolerance="10" gridtolerance="10" objecttolerance="10" borderopacity="1" pagecolor="#ffffff" bordercolor="#666666" id="namedview4" fit-margin-bottom="0" fit-margin-right="0" inkscape:current-layer="g10" inkscape:window-maximized="1" inkscape:window-y="22" inkscape:window-x="0" inkscape:window-height="860" inkscape:window-width="1440" inkscape:pageshadow="2" inkscape:pageopacity="0">
	</sodipodi:namedview>
<g id="text108" transform="matrix(0.73583705,0.67715865,0.67715865,-0.73583705,30.1424,141.3307)" display="none">
	<path id="path11509" inkscape:connector-curvature="0" display="inline" fill="#F8A30D" d="M14.199-52.44l7.57-0.63l0.859,10.324
		l3.383-0.281l-0.859-10.324l10.499-0.873l-0.314-3.766l-24.834,2.065l1.32,15.87l3.383-0.281L14.199-52.44"/>
	<path id="path11511" inkscape:connector-curvature="0" display="inline" fill="#F8A30D" d="M36.965-38.424l-24.835,2.066
		l0.313,3.767l24.834-2.066L36.965-38.424"/>
	<path id="path11513" inkscape:connector-curvature="0" display="inline" fill="#F8A30D" d="M16.996-18.816l21.451-1.785
		l-0.313-3.767l-21.451,1.784l-0.569-6.836l-3.383,0.281l1.451,17.439l3.383-0.281L16.996-18.816"/>
	<path id="path11515" inkscape:connector-curvature="0" display="inline" fill="#F8A30D" d="M33.906,14.722
		c1.215-0.312,2.277-0.774,3.186-1.388c0.911-0.591,1.659-1.309,2.244-2.154c0.587-0.821,1.002-1.745,1.244-2.773
		c0.244-1.004,0.32-2.064,0.228-3.179c-0.111-1.326-0.432-2.517-0.965-3.573c-0.555-1.031-1.297-1.941-2.23-2.73
		c-0.654-0.554-1.333-0.966-2.034-1.235c-0.702-0.27-1.454-0.453-2.258-0.55c-0.826-0.072-1.716-0.079-2.671-0.024
		c-0.955,0.056-2.026,0.134-3.212,0.232c-1.186,0.098-2.255,0.199-3.206,0.301c-0.952,0.102-1.817,0.256-2.595,0.462
		c-0.801,0.23-1.524,0.536-2.172,0.918c-0.647,0.381-1.248,0.9-1.802,1.555c-0.789,0.932-1.359,1.952-1.712,3.058
		c-0.374,1.132-0.506,2.36-0.396,3.685c0.194,2.326,1.007,4.213,2.438,5.663c1.41,1.474,3.39,2.329,5.938,2.561l-0.319-3.837
		c-1.281-0.198-2.351-0.683-3.212-1.454c-0.858-0.748-1.346-1.82-1.461-3.215c-0.062-0.744,0.02-1.442,0.247-2.093
		c0.204-0.649,0.52-1.214,0.948-1.695c0.3-0.329,0.639-0.615,1.017-0.857c0.357-0.217,0.821-0.408,1.392-0.573
		c0.55-0.139,1.242-0.267,2.075-0.383c0.834-0.116,1.878-0.226,3.134-0.331c1.256-0.104,2.304-0.169,3.145-0.191
		c0.84-0.023,1.556-0.012,2.145,0.033c0.568,0.07,1.057,0.181,1.467,0.334c0.39,0.179,0.76,0.406,1.111,0.681
		c0.501,0.403,0.919,0.907,1.249,1.511c0.308,0.607,0.493,1.282,0.555,2.026c0.116,1.395-0.186,2.545-0.907,3.448
		c-0.721,0.903-1.696,1.558-2.927,1.965L33.906,14.722 M13.456,8.697l-0.249-3l-5.99-4.032L7.462,4.63l3.636,2.753l-3.131,3.316
		l0.247,2.965L13.456,8.697"/>
	<path id="path11517" inkscape:connector-curvature="0" display="inline" fill="#F8A30D" d="M42.351,26.312l-0.244-2.93
		l-25.513-6.096l0.324,3.906l18.544,4.217L17.87,32.633l0.331,3.977L42.351,26.312"/>
	<path id="path11519" inkscape:connector-curvature="0" display="inline" fill="#F8A30D" d="M36.33,55.261
		c1.279-0.106,2.434-0.437,3.465-0.99c1.01-0.529,1.853-1.232,2.529-2.108c0.678-0.852,1.182-1.842,1.509-2.97
		c0.328-1.128,0.439-2.32,0.335-3.575c-0.105-1.256-0.412-2.413-0.921-3.471c-0.509-1.058-1.169-1.951-1.979-2.68
		c-0.81-0.729-1.757-1.282-2.842-1.66c-1.106-0.353-2.299-0.476-3.578-0.369l-16.464,1.369l0.314,3.767l16.288-1.356
		c1.674-0.139,3.027,0.217,4.058,1.068c1.03,0.85,1.611,2.055,1.74,3.614c0.13,1.558-0.243,2.842-1.119,3.851
		c-0.874,1.032-2.149,1.618-3.823,1.757l-16.288,1.356l0.313,3.767L36.33,55.261"/>
	<path id="path11521" inkscape:connector-curvature="0" display="inline" fill="#F8A30D" d="M24.388,70.022l21.451-1.784
		l-0.314-3.767l-21.45,1.785l-0.569-6.837L20.123,59.7l1.451,17.44l3.383-0.281L24.388,70.022"/>
</g>
<g id="text112" transform="matrix(0.73484066,0.67823978,0.67823978,-0.73484066,116.1347,220.8381)">
	<path id="path11504" inkscape:connector-curvature="0" fill="#231F20" d="M-79.382,112.375c1.894-0.152,3.539-0.62,4.934-1.405
		c1.397-0.748,2.534-1.718,3.41-2.909c0.879-1.154,1.501-2.494,1.864-4.018c0.367-1.487,0.483-3.066,0.349-4.738
		c-0.125-1.56-0.45-3.047-0.975-4.463c-0.562-1.413-1.333-2.64-2.314-3.683c-1.018-1.04-2.242-1.857-3.673-2.453
		c-1.465-0.555-3.183-0.772-5.154-0.652l0.456,5.682c1.08-0.05,2.006,0.081,2.778,0.394c0.773,0.312,1.443,0.744,2.01,1.296
		c0.531,0.555,0.937,1.195,1.219,1.92c0.286,0.762,0.461,1.552,0.527,2.369c0.152,1.893-0.281,3.48-1.301,4.757
		c-1.053,1.318-2.638,2.062-4.754,2.232c-2.006,0.161-3.629-0.27-4.869-1.292c-1.275-0.982-2.002-2.587-2.181-4.815l-0.076-0.947
		l-4.957,0.398l0.076,0.947c0.17,2.117-0.247,3.683-1.249,4.698c-1.037,1.055-2.465,1.655-4.285,1.802
		c-2.005,0.161-3.573-0.274-4.702-1.304c-1.129-1.031-1.761-2.382-1.895-4.053c-0.143-1.783,0.245-3.234,1.164-4.354
		c0.922-1.083,2.268-1.771,4.039-2.062l-0.456-5.682c-1.665,0.209-3.141,0.682-4.427,1.42c-1.287,0.739-2.352,1.665-3.197,2.78
		c-0.845,1.114-1.454,2.378-1.827,3.791c-0.409,1.416-0.55,2.923-0.422,4.519c0.134,1.672,0.536,3.19,1.207,4.557
		c0.633,1.369,1.492,2.515,2.574,3.437c1.049,0.963,2.283,1.667,3.702,2.114c1.384,0.487,2.894,0.665,4.528,0.534
		c2.117-0.17,3.845-0.757,5.185-1.762c1.305-0.965,2.267-2.256,2.885-3.876c0.879,1.649,2.121,2.913,3.724,3.794
		C-83.859,112.23-81.832,112.572-79.382,112.375"/>
	<path id="path11506" inkscape:connector-curvature="0" fill="#231F20" d="M-86.017,142.173c-2.785,0.223-5.114,0.317-6.986,0.28
		c-1.872-0.037-3.425-0.529-4.66-1.476c-1.913-1.491-2.985-3.666-3.214-6.526l-0.586-7.298l28.855-2.315l0.586,7.298
		c0.23,2.86-0.481,5.178-2.133,6.955c-1.068,1.132-2.615,1.873-4.643,2.223C-80.825,141.663-83.232,141.949-86.017,142.173
		 M-85.534,148.189c1.448-0.116,2.914-0.253,4.396-0.409c1.486-0.119,2.925-0.347,4.318-0.683c1.394-0.335,2.718-0.834,3.973-1.496
		c1.255-0.662,2.378-1.574,3.368-2.738c1.162-1.364,1.988-2.944,2.479-4.74c0.457-1.756,0.6-3.693,0.43-5.81l-1.117-13.927
		l-39.662,3.183l1.117,13.927c0.17,2.117,0.639,4.003,1.407,5.662c0.734,1.697,1.784,3.127,3.148,4.289
		c1.163,0.99,2.399,1.714,3.706,2.169c1.271,0.459,2.602,0.745,3.993,0.857c1.355,0.116,2.738,0.116,4.149,0.004
		C-88.414,148.402-86.982,148.305-85.534,148.189"/>
</g>
<g id="g116">
	<g>
		<defs>
			<rect id="SVGID_1_" x="-23.198" y="-25.701" width="402.5" height="412.499"/>
		</defs>
		<clipPath id="SVGID_2_">
			<use xlink:href="#SVGID_1_"  overflow="visible"/>
		</clipPath>
		<g id="g118" clip-path="url(#SVGID_2_)">
			<g id="text124" transform="matrix(0.71375003,-0.70040053,-0.70040053,-0.71375003,133.5101,283.4271)">
				<path id="path11487" inkscape:connector-curvature="0" fill="#231F20" d="M211.302,145.425c2.129,0.04,3.76,0.724,4.894,2.053
					c1.133,1.292,1.68,3.002,1.64,5.131l-0.165,8.74l-13.277-0.251l0.164-8.739c0.041-2.129,0.633-3.818,1.778-5.066
					C207.518,146.007,209.173,145.385,211.302,145.425 M211.416,139.374c-1.755-0.034-3.386,0.235-4.891,0.804
					c-1.468,0.57-2.754,1.406-3.858,2.506c-1.067,1.1-1.933,2.429-2.597,3.986c-0.627,1.557-0.959,3.307-0.996,5.249l-0.172,9.076
					l-15.686-0.297l-0.114,6.051l39.887,0.753l0.286-15.125c0.037-1.943-0.247-3.704-0.853-5.285
					c-0.568-1.58-1.383-2.94-2.445-4.081c-1.024-1.14-2.278-2.023-3.761-2.649C214.734,139.736,213.135,139.407,211.416,139.374"/>
				<path id="path11489" inkscape:connector-curvature="0" fill="#231F20" d="M212.333,111.595c2.017,0.038,3.555,0.702,4.614,1.993
					c1.06,1.253,1.571,2.888,1.533,4.904l-0.17,8.964l-12.493-0.236l0.169-8.963c0.038-2.017,0.592-3.632,1.661-4.844
					C208.754,112.163,210.316,111.557,212.333,111.595 M184.158,110.839l16.648,8.721l-0.143,7.562l-16.806-0.317l-0.114,6.05
					l39.887,0.753l0.292-15.462c0.036-1.904-0.231-3.609-0.8-5.114c-0.531-1.542-1.31-2.864-2.335-3.967
					c-0.988-1.102-2.205-1.947-3.651-2.535c-1.409-0.624-2.953-0.952-4.634-0.984c-2.876-0.054-5.224,0.667-7.046,2.165
					c-1.785,1.498-3.015,3.362-3.692,5.59l-17.474-9.52L184.158,110.839"/>
				<path id="path11491" inkscape:connector-curvature="0" fill="#231F20" d="M184.41,97.505l39.888,0.753l0.114-6.051
					l-39.888-0.753L184.41,97.505"/>
				<path id="path11493" inkscape:connector-curvature="0" fill="#231F20" d="M185.157,57.898l27.719,18.961l-28.067-0.53
					l-0.114,6.05l39.888,0.753l0.104-5.546l-27.663-18.96l28.012,0.529l0.114-6.05l-39.888-0.753L185.157,57.898"/>
				<path id="path11495" inkscape:connector-curvature="0" fill="#231F20" d="M220.142,30.425l-34.453-0.651l-0.114,6.051
					l34.454,0.65l-0.208,10.98l5.434,0.103l0.529-28.011l-5.434-0.103L220.142,30.425"/>
				<path id="path11497" inkscape:connector-curvature="0" fill="#231F20" d="M186.229,1.148l39.888,0.753l0.114-6.05L191.777-4.8
					l0.363-19.216l-5.434-0.103L186.229,1.148"/>
				<path id="path11499" inkscape:connector-curvature="0" fill="#231F20" d="M217.914-41.519l-17.82,5.885l0.232-12.269
					L217.914-41.519 M187.244-52.577l7.958,2.895l-0.297,15.743l-8.063,2.594l-0.122,6.443l40.164-13.869l0.092-4.874L187.366-59.02
					L187.244-52.577"/>
				<path id="path11501" inkscape:connector-curvature="0" fill="#231F20" d="M216.592-84.304c1.905,0.037,3.313,0.661,4.224,1.874
					c0.948,1.213,1.404,2.791,1.368,4.734l-0.17,8.963l-11.428-0.216l0.169-8.963c0.037-1.942,0.533-3.502,1.49-4.68
					C213.239-83.769,214.687-84.34,216.592-84.304 M199.405-85.245c1.792,0.033,3.238,0.622,4.338,1.763
					c1.098,1.142,1.629,2.777,1.588,4.906l-0.179,9.523l-12.157-0.229l0.18-9.524c0.04-2.129,0.631-3.743,1.772-4.842
					C196.127-84.746,197.613-85.278,199.405-85.245 M199.239-91.301c-1.83-0.035-3.461,0.234-4.891,0.805
					c-1.393,0.572-2.586,1.389-3.576,2.454c-0.954,1.028-1.687,2.285-2.201,3.769c-0.513,1.447-0.786,3.048-0.819,4.805
					l-0.304,16.134l39.887,0.753l0.293-15.518c0.07-3.735-0.845-6.685-2.747-8.851c-1.901-2.202-4.552-3.336-7.95-3.4
					c-1.083-0.021-2.094,0.129-3.034,0.446c-0.902,0.283-1.731,0.678-2.489,1.186c-0.719,0.472-1.344,1.021-1.88,1.645
					c-0.498,0.626-0.883,1.273-1.157,1.94c-0.284-0.79-0.681-1.544-1.19-2.264c-0.51-0.72-1.151-1.367-1.926-1.941
					c-0.736-0.575-1.605-1.039-2.608-1.395C201.645-91.087,200.51-91.276,199.239-91.301"/>
			</g>
		</g>
	</g>
</g>
<g id="g11561" transform="translate(0,4.8)" inkscape:export-ydpi="5.4159918" inkscape:export-xdpi="5.4159918" inkscape:export-filename="/home/churchyard/tmp/skola/reprap/logotyp/kapka16.png">
	<path id="path22" inkscape:connector-curvature="0" fill="#F8A30D" d="M255.088,312.612c45.428-42.035,45.426-110.191,0-152.225
		c-0.139-0.128-0.29-0.231-0.427-0.358l-81.65-75.555l-78.345,72.499c-1.357,1.143-2.771,2.2-4.083,3.415
		c-45.426,42.037-45.426,110.189,0,152.225C136.008,354.649,209.661,354.649,255.088,312.612"/>
	<path id="path11410" inkscape:connector-curvature="0" opacity="0.7" fill="#FFFFFF" enable-background="new    " d="
		M209.521,118.281c-8.212,4.438-13.856,13.027-14.062,22.969l-56.719,10.031c-3.917-8.293-11.973-14.228-21.5-15.188l-22.562,20.875
		c-1.357,1.143-2.783,2.191-4.094,3.406c-0.961,0.889-1.893,1.807-2.812,2.719c0.104,7.061,2.937,13.464,7.5,18.188l-38.5,62.344
		c0.453,6.37,1.515,12.708,3.188,18.938l45.625-74.625c2.797,0.991,5.8,1.531,8.938,1.531c0.566,0,1.129-0.06,1.688-0.094
		l14.219,45.562c-10.066,3.845-17.219,13.583-17.219,25c0,0.819,0.053,1.638,0.125,2.438l-47.812,15.75
		c1.727,3.816,3.714,7.539,5.938,11.188l45.875-15.094c4.741,7.499,13.128,12.5,22.656,12.5c2.188,0,4.307-0.285,6.344-0.781
		l5.594,18.095c-3.414,2.418-6.217,5.623-8.188,9.344l-65.594-14.344c3.68,4.758,7.818,9.318,12.438,13.594
		c0.977,0.902,1.966,1.791,2.969,2.656l47.062,10.25c-0.001,0.113,0,0.229,0,0.344c0,5.664,1.743,10.926,4.75,15.25
		c13.883,3.107,28.263,3.803,42.375,2.125c3.994-4.674,6.406-10.742,6.406-17.375c0-1.119-0.086-2.232-0.219-3.312l55.562-19.5
		c1.866,3.111,4.352,5.811,7.281,7.938c13.71-13.219,23.094-28.858,28.094-45.407c-3.713-1.944-7.927-3.031-12.406-3.031
		c-0.784,0-1.546,0.028-2.312,0.094l-33.688-98.219c4.472-2.821,8.024-6.943,10.188-11.812L209.521,118.281z M198.083,153.437
		c1.217,2.518,2.843,4.809,4.75,6.812l-53.188,74.75c-2.113-0.819-4.354-1.397-6.688-1.656l-14.812-47.594
		c7.637-4.526,12.8-12.769,13.094-22.219L198.083,153.437z M213.427,167.062c2.757,0.96,5.696,1.5,8.781,1.5
		c0.882,0,1.765-0.042,2.625-0.125l33.281,98.312c-3.945,2.515-7.197,6.022-9.375,10.188l-82-17.25
		c-0.062-6.653-2.582-12.694-6.656-17.344L213.427,167.062z M163.833,272.031l81.875,17.219c0,0.021,0,0.042,0,0.062
		c0,0.63,0.02,1.257,0.062,1.875l-56.281,19.593c-4.82-7.045-12.912-11.688-22.094-11.688c-1.289,0-2.572,0.105-3.812,0.281
		l-6-19.312C160.147,277.815,162.277,275.1,163.833,272.031z"/>
</g>
<text transform="matrix(0.7386 -0.6742 0.6742 0.7386 24.2439 199.5308)" fill="#F8A30D" font-family="'UnientDINCE-Medium'" font-size="34.4887">FIT CTU</text>
</svg>
