<?xml version="1.0" encoding="UTF-8" standalone="no"?>
<!-- Created with Inkscape (http://www.inkscape.org/) -->

<svg
   xmlns:dc="http://purl.org/dc/elements/1.1/"
   xmlns:cc="http://creativecommons.org/ns#"
   xmlns:rdf="http://www.w3.org/1999/02/22-rdf-syntax-ns#"
   xmlns:svg="http://www.w3.org/2000/svg"
   xmlns="http://www.w3.org/2000/svg"
   xmlns:sodipodi="http://sodipodi.sourceforge.net/DTD/sodipodi-0.dtd"
   xmlns:inkscape="http://www.inkscape.org/namespaces/inkscape"
   width="1191.9114"
   height="1265.0031"
   id="svg2"
   inkscape:label="Pozadí"
   version="1.1"
   inkscape:version="0.48.1 r9760"
   sodipodi:docname="foursquare_sticker.svg"
   style="display:inline">
  <defs
     id="defs10477">
    <clipPath
       id="clipPath2400">
      <path
         id="path2402"
         d="M 0,1224.36 0,0 l 4415.73,0 0,1224.36 -4415.73,0 z"
         inkscape:connector-curvature="0" />
    </clipPath>
    <filter
       inkscape:collect="always"
       id="filter11845"
       color-interpolation-filters="sRGB">
      <feGaussianBlur
         inkscape:collect="always"
         stdDeviation="14.386284"
         id="feGaussianBlur11847" />
    </filter>
  </defs>
  <sodipodi:namedview
     id="base"
     pagecolor="#ffffff"
     bordercolor="#666666"
     borderopacity="1.0"
     inkscape:pageopacity="0.0"
     inkscape:pageshadow="2"
     inkscape:zoom="0.49497475"
     inkscape:cx="506.94972"
     inkscape:cy="757.36711"
     inkscape:document-units="px"
     inkscape:current-layer="layer2"
     showgrid="false"
     inkscape:window-width="1680"
     inkscape:window-height="1010"
     inkscape:window-x="0"
     inkscape:window-y="22"
     inkscape:window-maximized="1"
     fit-margin-top="0"
     fit-margin-left="0"
     fit-margin-right="0"
     fit-margin-bottom="0" />
  <metadata
     id="metadata10480">
    <rdf:RDF>
      <cc:Work
         rdf:about="">
        <dc:format>image/svg+xml</dc:format>
        <dc:type
           rdf:resource="http://purl.org/dc/dcmitype/StillImage" />
        <dc:title></dc:title>
      </cc:Work>
    </rdf:RDF>
  </metadata>
  <g
     style="display:inline"
     inkscape:label="Shadow"
     id="g11783"
     inkscape:groupmode="layer"
     transform="translate(21.098553,28.241376)"
     sodipodi:insensitive="true">
    <g
       id="g11789"
       style="opacity:0.54243541;filter:url(#filter11845)"
       transform="translate(12,6)">
      <path
         sodipodi:type="arc"
         style="fill:#000000;fill-opacity:1;fill-rule:nonzero;stroke:none;display:inline"
         id="path11785"
         sodipodi:cx="562.85712"
         sodipodi:cy="561.71429"
         sodipodi:rx="561.42859"
         sodipodi:ry="561.42859"
         d="m 1124.2857,561.71429 a 561.42859,561.42859 0 1 1 -1122.8571722,0 561.42859,561.42859 0 1 1 1122.8571722,0 z" />
      <path
         style="fill:#000000;stroke:#000000;stroke-width:34;stroke-linecap:butt;stroke-linejoin:round;stroke-miterlimit:4;stroke-opacity:1;stroke-dasharray:none"
         d="m 681.2881,1071.2488 c 87.66704,38.4033 187.75273,76.5777 265.7322,107.9852 -3.99148,-85.0383 -11.70175,-164.8867 -14.91561,-228.89247 C 823.0018,864.49374 697.51241,1009.533 681.2881,1071.2488 z"
         id="path11787"
         inkscape:connector-curvature="0"
         sodipodi:nodetypes="cccc" />
    </g>
  </g>
  <g
     inkscape:groupmode="layer"
     id="layer4"
     inkscape:label="Circle"
     style="display:inline"
     sodipodi:insensitive="true"
     transform="translate(21.098553,28.241376)">
    <path
       sodipodi:type="arc"
       style="fill:#8cc63f;fill-opacity:1;fill-rule:nonzero;stroke:none;display:inline"
       id="path10936"
       sodipodi:cx="562.85712"
       sodipodi:cy="561.71429"
       sodipodi:rx="561.42859"
       sodipodi:ry="561.42859"
       d="m 1124.2857,561.71429 c 0,310.06845 -251.36014,561.42861 -561.42858,561.42861 -310.06845,0 -561.4285922,-251.36016 -561.4285922,-561.42861 0,-310.06844 251.3601422,-561.42858443 561.4285922,-561.42858443 310.06844,0 561.42858,251.36014443 561.42858,561.42858443 z" />
    <path
       style="fill:#8cc63f;stroke:#8cc63f;stroke-width:34;stroke-linecap:butt;stroke-linejoin:round;stroke-miterlimit:4;stroke-opacity:1;stroke-dasharray:none"
       d="m 681.2881,1071.2488 c 87.66704,38.4033 187.75273,76.5777 265.7322,107.9852 -3.99148,-85.0383 -11.70175,-164.8867 -14.91561,-228.89247 C 823.0018,864.49374 697.51241,1009.533 681.2881,1071.2488 z"
       id="path11709"
       inkscape:connector-curvature="0"
       sodipodi:nodetypes="cccc" />
  </g>
  <g
     inkscape:groupmode="layer"
     id="layer6"
     inkscape:label="Check in to unlock..."
     style="display:inline"
     sodipodi:insensitive="true"
     transform="translate(21.098553,28.241376)">
    <text
       xml:space="preserve"
       style="font-size:36.54350662px;font-style:normal;font-variant:normal;font-weight:normal;font-stretch:normal;text-align:center;line-height:127.99999714%;letter-spacing:1.21000004px;word-spacing:0px;text-anchor:middle;fill:#ffffff;fill-opacity:1;stroke:none;font-family:Dingbats;-inkscape-font-specification:Dingbats"
       x="566.05328"
       y="845.69476"
       id="text11766"
       sodipodi:linespacing="128%"><tspan
         sodipodi:role="line"
         id="tspan11768"
         x="566.65826"
         y="845.69476">Check in to unlock specials, meet up with</tspan><tspan
         sodipodi:role="line"
         x="566.65833"
         y="892.47046"
         id="tspan11770">friends and explore what’s nearby.</tspan></text>
    <text
       sodipodi:linespacing="145%"
       id="text11772"
       y="976.06537"
       x="570.47968"
       style="font-size:36.54350662px;font-style:normal;font-variant:normal;font-weight:bold;font-stretch:normal;text-align:center;line-height:145.00000477%;letter-spacing:-0.41px;word-spacing:0px;text-anchor:middle;fill:#ffffff;fill-opacity:1;stroke:none;font-family:Dingbats;-inkscape-font-specification:Dingbats Bold"
       xml:space="preserve"><tspan
         id="tspan11776"
         y="976.06537"
         x="570.27466"
         sodipodi:role="line">foursquare.com</tspan><tspan
         y="1029.0535"
         x="570.27466"
         sodipodi:role="line"
         id="tspan11780">@foursquare</tspan></text>
  </g>
  <g
     inkscape:groupmode="layer"
     id="layer2"
     inkscape:label="Foursquare"
     style="display:inline"
     sodipodi:insensitive="true"
     transform="translate(21.098553,28.241376)">
    <g
       id="g10768">
      <path
         inkscape:connector-curvature="0"
         id="path10723"
         d="M 231.375,521.59375 C 198.98839,521.76878 168.45068,549.36986 168,582.25 c -0.38025,3.40282 -5.29152,2.13286 -7.21875,4.53125 -14.61251,9.42242 -18.23054,28.08199 -18.6875,44.3125 0.14249,10.11826 4.26404,20.65666 12.59375,26.6875 -2.97844,17.47117 -8.71428,35.11026 -6.96875,52.96875 3.38526,16.52287 20.72045,27.2886 37.125,25.8125 14.88414,0.87133 32.88816,-0.8371 41.84375,-14.3125 2.39872,-0.31879 5.64935,3.33162 8.5625,4.1875 24.03641,11.84394 54.2894,10.23457 77.15625,-3.6875 17.61013,13.30159 42.44833,14.92752 62.53125,6.59375 19.95624,5.94026 41.18736,2.50735 61.65625,2.75 5.79813,-1.21914 11.1913,-3.98585 15.75,-7.75 23.82836,16.60965 57.39445,18.22482 82.8125,4.125 6.55513,4.52658 14.53429,6.14044 22,8.65625 1.712,23.33831 23.74279,42.41343 47.125,41.59375 15.58731,1.9797 34.88451,-1.10421 42.8125,-16.28125 4.23968,-7.3605 5.20122,-16.32794 6.625,-24.40625 9.88945,0.79222 19.28679,-3.98971 28.78125,-4.59375 13.83744,3.91689 29.08363,4.15888 42.71875,-0.65625 15.43763,7.19533 34.07812,6.6775 49.65625,0.125 19.90563,5.802 41.00014,2.49823 61.375,2.65625 9.99793,-2.22615 18.61671,-9.19254 23.28125,-18.25 32.32382,29.87138 89.74519,27.4297 118.0625,-6.625 5.52712,-8.00337 7.07356,-18.49625 4.78125,-27.9375 11.1581,-16.28755 6.00673,-37.59877 -0.0937,-54.71875 -11.46124,-28.99475 -43.2853,-48.19935 -74.46875,-43.96875 -9.07992,0.50281 -18.29963,4.89345 -27.09375,1.375 -15.12797,-3.34772 -30.51263,1.33702 -45.78125,0 -13.42542,0.64022 -26.93226,0.94924 -40.25,-0.3125 -8.55634,0.88901 -17.41507,3.11674 -25.6875,-0.46875 -13.83326,-2.96016 -28.06016,0.89397 -41.21875,3.96875 -14.20204,-5.53763 -30.12318,-3.29795 -44.78125,-1.28125 -3.50354,0.86498 -6.84266,6.39458 -10.28125,2.75 -15.96713,-8.66754 -34.86335,-2.68284 -52.125,-4.78125 -8.37878,-0.70139 -16.95819,2.42324 -25.03125,1.0625 -18.66001,-5.75001 -39.13878,-1.90393 -56.15625,6.90625 -15.12239,-9.85484 -34.0138,-9.27121 -51.28125,-10.125 -16.36529,-5.81622 -33.67293,0.23053 -50.4375,-1.3125 -12.57048,0.7039 -25.15791,1.29595 -37.6875,0 -10.36625,-0.32584 -21.74094,0.1991 -30.4375,6.15625 -14.03525,-9.09546 -32.07744,-6.42909 -47.8125,-4.65625 -4.3191,1.28685 -8.26863,3.46082 -11.96875,6 -4.69634,-3.00451 -11.30848,-4.28413 -15.40625,-6.59375 7.56958,-14.24639 2.7782,-33.34465 -10.27045,-42.70474 -14.19377,-12.87089 -33.65679,-19.04268 -52.72955,-18.45151 z"
         style="fill:#ffffff;fill-opacity:1;fill-rule:nonzero;stroke:none" />
      <g
         transform="matrix(1.5238099,0,0,1.5238099,1079.5967,-373.36231)"
         id="g10708">
        <path
           inkscape:connector-curvature="0"
           d="m -67.41188,679.72655 c -0.33875,-10.92875 -3.105,-21.73187 -10.295,-30.34175 -7.1525,-8.65237 -18.3975,-13.41025 -30.59375,-13.41025 -0.085,0 -0.22125,-0.006 -0.43,0 l -0.13375,0 c -5.83125,0 -11.45375,1.15588 -16.60625,3.26563 -3.75375,-1.61375 -8.235,-2.93163 -13.8975,-3.12013 -0.1575,-0.009 -0.29625,-0.009 -0.38375,-0.009 -3.3175,0 -6.75125,0.57813 -10.04625,1.78225 -1.3925,-0.47312 -2.87375,-0.71975 -4.3825,-0.71625 l -13.09125,0 c -1.8625,-0.004 -3.66625,0.374 -5.31375,1.062 -1.595,-0.67337 -3.35,-1.0655 -5.19125,-1.062 l -13.09875,0 c -2.42375,-0.006 -4.72875,0.62638 -6.735,1.75575 -4.28875,-1.933 -8.96,-2.96625 -13.695,-2.96625 -0.135,0 -0.35375,-0.009 -0.64625,0.008 l -0.10125,0 c -6.555,-0.008 -12.88,1.6895 -18.48,4.74862 -2.50125,-2.27537 -5.78125,-3.56112 -9.21,-3.55274 l -13.09875,0 c -5.49875,0 -10.33625,3.24512 -12.51375,8.06399 -0.51,-1.12899 -1.17125,-2.192 -1.98875,-3.15875 -2.60875,-3.10837 -6.44875,-4.90524 -10.50125,-4.90524 l -13.11125,0 c -0.775,0 -1.50375,0.0756 -2.19125,0.19137 -0.74375,-0.12738 -1.515,-0.19137 -2.285,-0.19137 l -13.10875,0 c -2.46875,0 -4.82,0.65912 -6.84875,1.82612 -4.47375,-1.98 -9.3325,-3.03025 -14.22625,-3.03025 -0.1425,0 -0.35125,-0.009 -0.65375,0.008 l -0.0775,0 c -8.76625,0 -17.22,2.8765 -24.075,8.0635 -6.18625,-4.97512 -14.3925,-8.0635 -23.515,-8.0635 l -0.09,0 c -0.075,0 -0.1975,-0.006 -0.39125,0.009 -2.7675,0.0175 -5.54125,0.29337 -8.25875,0.85637 -5.49125,-2.78412 -10.51875,-2.96088 -14.68125,-3.01613 -0.0813,-0.006 -0.22,-0.006 -0.29625,-0.006 -3.31125,0 -6.7575,0.57812 -10.055,1.77974 -1.3925,-0.47362 -2.87375,-0.72024 -4.37625,-0.72024 l -13.10875,0 c -1.9775,-0.009 -3.855,0.42674 -5.5475,1.18162 -1.66875,-0.7465 -3.515,-1.19038 -5.45375,-1.18162 l -13.105,0 c -5.49875,-0.009 -10.33375,3.24512 -12.505,8.06399 -0.51375,-1.12937 -1.17875,-2.19487 -1.98625,-3.15575 -2.615,-3.126 -6.4575,-4.917 -10.525,-4.90824 l -13.09037,0 c -5.19863,-0.009 -9.81388,2.90287 -12.13613,7.30562 -7.21,-5.44237 -16.24962,-8.50138 -25.80225,-8.50138 l -0.13925,0 c -0.56,0 -1.11712,0.008 -1.67425,0.0318 l 6.56588,-6.80963 c 2.55425,-2.65875 3.84275,-6.10775 3.84275,-9.5415 0,-3.26125 -1.16938,-6.5475 -3.50638,-9.14 l -0.15087,-0.1775 -0.1855,-0.145 -0.0239,-0.0375 c -1.796,-1.82625 -11.5635,-12.30125 -28.61962,-12.6525 -0.1455,-0.009 -0.3575,-0.0175 -0.63575,-0.0175 -12.93125,0.009 -23.0855,5.335 -28.69588,12.325 -5.57025,6.64125 -6.81875,13.805 -7.17825,15.54125 -0.30512,1.6045 -1.19625,6.751 -2.06925,11.81012 -6.59182,0.0581 -12.22072,4.80126 -13.38478,11.29738 l -1.9878,10.97213 c -0.14844,0.79837 -0.23242,1.60837 -0.2207,2.43212 -0.0117,3.19575 1.11719,6.3135 3.1958,8.80663 1.56152,1.86037 3.55273,3.25387 5.77295,4.07574 l -5.56153,31.726 c -0.14746,0.76613 -0.21729,1.56988 -0.21729,2.3765 0,3.19975 1.12013,6.31988 3.21632,8.81588 2.62061,3.11425 6.47016,4.90625 10.51903,4.896 l 12.99513,0 c 6.65575,0 12.35112,-4.7885 13.50875,-11.3545 l 0.68562,-3.92088 c 0.6645,0.75438 1.3525,1.48288 2.07513,2.18513 7.58737,7.42275 18.0425,11.79687 29.32862,11.89787 l 0.0435,0.0146 0.49075,0 c 10.583,0 20.62013,-3.48875 28.44575,-9.86075 0.0899,0.1025 0.18013,0.204 0.27588,0.30275 5.8315,6.32462 14.21675,9.54925 22.64912,9.558 0.0575,-0.002 0.0937,-0.009 0.0987,-0.009 0.435,0.021 0.73125,0.0259 1.025,0.0259 5.72125,0 11.14875,-1.53813 15.90875,-4.12688 4.5175,2.2875 9.405,2.8905 14.2725,2.9135 l 6.36625,0 c 0.62375,0.004 1.23625,-0.0425 1.83625,-0.1245 0.37875,0.0551 0.875,0.1245 1.49875,0.1245 l 13.09125,0 c 5.8775,0 11.00875,-3.74125 12.9225,-9.13425 7.0325,7.59038 17.72625,12.625 30.2075,12.625 0.125,0 0.30125,0.005 0.49375,0 9.3,0.005 18.08875,-2.24175 24.96875,-7.8325 0.0175,-0.0113 0.035,-0.0294 0.0525,-0.0464 6.15875,4.99513 14.0075,7.85738 22.245,7.86863 l 0.0825,0.0102 0.17875,0 c -0.145,1.32225 -0.22375,2.63962 -0.22375,3.96487 -0.007,0.10351 -0.02,0.39988 -0.02,0.71388 0.035,5.9575 2.5675,13.34614 8.925,17.7021 5.98375,4.02636 11.995,4.40038 17.2025,4.47265 l 6.42375,0 c 6.68625,0 12.37625,-4.81739 13.50375,-11.40625 l 1.715,-10.04975 c 0.1275,-0.78913 0.19375,-1.55525 0.185,-2.30525 0,-1.40475 -0.215,-2.79487 -0.63,-4.12113 2.6475,0.67876 5.3825,1.02888 8.13,1.02888 l 0.0962,0 c 0.43,0.01 0.7125,0.0185 0.99875,0.0185 5.73625,0 11.1675,-1.5405 15.92625,-4.13525 4.52125,2.28613 9.41625,2.89312 14.27625,2.92 l 6.36875,0 c 3.25875,0 6.28875,-1.16463 8.6675,-3.1055 4.9925,2.7475 10.6725,4.29588 16.5675,4.30225 l 0.15875,0 c 0.25625,0.005 0.5225,0.005 0.81375,0.005 5.55875,0.007 10.735,-1.50338 15.23875,-3.97413 4.635,2.30462 9.51,2.71975 14.26375,2.7725 l 6.3925,0 c 0.56875,0 1.0825,-0.0464 1.5375,-0.105 0.26125,0.0415 0.6475,0.0879 1.15625,0.0961 l 13.10125,0 c 6.6675,0 12.385,-4.79826 13.51,-11.38425 l 2.09875,-12.14838 c 2.01125,4.75488 4.91,9.10638 8.67,12.77825 7.8975,7.78475 19.06375,11.94975 31.2175,11.94975 l 0,-0.005 c 0.415,0.0151 0.61875,0.0151 0.79,0.0151 13.0525,0.005 24.2975,-4.66262 32.2375,-12.061 2.73,-2.49175 4.3475,-6.0205 4.4575,-9.73688 l 0,-0.39749 c 0,-2.78563 -0.85125,-5.47751 -2.395,-7.73825 3.62875,-2.48438 5.965,-6.65288 5.965,-11.31438 l -0.007,-0.0553 0.007,-0.17425 0,-0.17975"
           id="path2404"
           style="fill:#3467ba;fill-opacity:1;fill-rule:nonzero;stroke:none" />
        <path
           inkscape:connector-curvature="0"
           d="m -405.64063,695.76655 9.39875,-6.3535 c 3.17875,4.76562 7.27625,7.80763 14.15625,7.80763 6.48375,0 9.00125,-2.38038 9.00125,-5.956 0,-3.57038 -2.91125,-4.62988 -11.24875,-8.60113 -7.6775,-3.834 -13.235,-8.20313 -13.235,-16.67238 0,-10.58587 8.46875,-16.27237 19.3225,-16.27237 8.46625,0 14.685,3.437 18.525,8.3305 l -8.60125,7.15238 c -2.24625,-2.91163 -4.89375,-5.29738 -10.05375,-5.29738 -4.105,0 -7.01625,1.85787 -7.01625,5.16362 0,3.30613 2.7775,4.89688 9.13125,7.80563 8.735,4.1015 15.74125,7.94188 15.74125,17.99563 0,9.79387 -7.27125,16.80662 -21.8275,16.80662 -11.38125,0 -19.18625,-5.16112 -23.29375,-11.90925"
           id="path2406"
           style="fill:#dff0b1;fill-opacity:1;fill-rule:nonzero;stroke:none" />
        <path
           inkscape:connector-curvature="0"
           d="m -313.16188,677.36968 c 0.13,-9.5235 -5.425,-16.14163 -14.29,-16.14163 -10.19375,0 -16.67375,7.9385 -16.67375,19.44725 0,9.40188 5.2925,15.6225 13.89375,15.6225 9.92,0 17.07,-7.94188 17.07,-18.92812 z m -7.5475,43.00874 3.975,-22.89699 c -3.975,6.09037 -9.79375,10.19437 -18.00375,10.19437 -13.3575,0 -23.02,-10.71875 -23.02,-26.7295 0,-19.18413 12.57125,-31.2275 27.52625,-31.2275 9.1275,0 16.805,4.62937 19.9775,13.23037 l 1.7225,-12.04049 13.09875,0 -12.30375,69.73337 c -0.395,2.648 0.26125,3.84038 2.51625,3.84038 l 4.49375,0 -1.71625,10.05462 -6.35375,0 c -10.31875,0 -13.895,-3.44237 -11.9125,-14.15863"
           id="path2408"
           style="fill:#dff0b1;fill-opacity:1;fill-rule:nonzero;stroke:none" />
        <path
           inkscape:connector-curvature="0"
           d="m -296.50438,682.39993 5.55625,-31.49125 13.1025,0 -5.425,30.832 c -1.59,8.99912 1.85125,14.28962 9.79125,14.28962 8.46375,0 13.3625,-4.76562 15.22125,-14.42 l 5.4225,-30.70162 13.09625,0 -7.2775,41.67925 c -0.525,2.64787 0.13625,3.84025 2.38375,3.84025 l 4.49875,0 -1.7175,10.05525 -6.35375,0 c -10.1925,0 -12.1725,-4.10163 -12.04125,-8.86726 l 0,-0.92425 c -4.76875,7.27776 -10.58875,10.98388 -19.05875,10.98388 -12.17,0 -19.845,-9.7935 -17.19875,-25.27587"
           id="path2410"
           style="fill:#dff0b1;fill-opacity:1;fill-rule:nonzero;stroke:none" />
        <path
           inkscape:connector-curvature="0"
           d="m -195.50563,677.36968 c 0,-9.5235 -5.03125,-16.14163 -13.63,-16.14163 -9.78875,0 -16.00625,7.9385 -16.00625,19.44725 0,9.40188 5.02375,15.6225 13.36,15.6225 9.4,0 16.27625,-7.94188 16.27625,-18.92812 z m -43.27,3.57662 c 0,-19.18413 12.30625,-31.2275 26.86125,-31.2275 8.73625,0 16.1475,4.62937 19.32,13.23037 l 1.72125,-12.04049 13.09875,0 -7.27875,41.67925 c -0.39125,2.64787 0.26625,3.84025 2.52,3.84025 l 4.49375,0 -1.71625,10.05525 -6.35375,0 c -10.3225,0 -12.04375,-3.57326 -12.04375,-8.73438 l 0,-1.19 c -4.49375,7.146 -10.05125,11.11675 -18.2575,11.11675 -12.705,0 -22.365,-10.45512 -22.365,-26.7295"
           id="path2412"
           style="fill:#dff0b1;fill-opacity:1;fill-rule:nonzero;stroke:none" />
        <path
           inkscape:connector-curvature="0"
           d="m -167.26563,650.90868 13.09375,0 -2.51125,11.38137 c 4.895,-8.99763 10.58375,-12.44087 17.20375,-12.44087 3.575,0 8.165,1.33875 10.2825,2.52825 0,0 -3.37875,2.18849 -5.505,4.92624 -2.42875,3.126 -3.62125,6.37363 -3.62125,6.37363 0,0 -2.2175,-1.521 -4.73125,-1.521 -8.34,0 -14.02625,4.8945 -16.27625,17.46525 l -4.62625,26.86188 -13.1075,0 9.79875,-55.57475"
           id="path2414"
           style="fill:#dff0b1;fill-opacity:1;fill-rule:nonzero;stroke:none" />
        <path
           inkscape:connector-curvature="0"
           d="m -95.14688,672.7393 c -0.66125,-6.61725 -4.76,-12.4375 -13.62375,-12.4375 -9.0025,0 -14.825,5.68937 -16.015,15.61863 l 29.63875,-3.18113 z m -12.9625,24.08437 c 7.14,0 11.90375,-2.645 15.34625,-5.82274 l 8.06875,8.20562 c -5.81875,5.29438 -13.09625,8.46925 -23.55125,8.46925 -18.525,0 -29.77375,-12.03963 -29.77375,-28.187 0,-17.46287 12.83625,-29.77 29.24875,-29.77 18.51875,0 27.125,12.57125 27.65375,30.43163 l -43.40375,4.63474 c 1.72125,7.40863 7.54375,12.0385 16.41125,12.0385"
           id="path2416"
           style="fill:#dff0b1;fill-opacity:1;fill-rule:nonzero;stroke:none" />
        <path
           inkscape:connector-curvature="0"
           d="m -514.45925,675.34668 c 0,-9.79688 -5.95013,-16.54251 -15.34575,-16.54251 -9.92963,0 -16.54238,7.94138 -16.54238,18.92288 0,9.65962 6.08688,16.40875 15.352,16.40875 10.05513,0 16.53613,-7.9395 16.53613,-18.78912 z m -45.38575,2.11575 c 0,-17.60163 13.49762,-30.03663 30.438,-30.03663 16.01362,0 28.44825,11.90325 28.44825,28.05175 0,17.59863 -13.36675,29.90575 -30.437,29.90575 -16.00838,0 -28.44925,-12.0435 -28.44925,-27.92087"
           id="path2418"
           style="fill:#ffffff;fill-opacity:1;fill-rule:nonzero;stroke:none" />
        <path
           inkscape:connector-curvature="0"
           d="m -496.95825,680.10643 5.55862,-31.49363 13.0965,0 -5.42225,30.832 c -1.59025,9.0015 1.846,14.28962 9.791,14.28962 8.47,0 13.36625,-4.75987 15.2125,-14.42287 l 5.4275,-30.69875 13.1025,0 -7.27875,41.685 c -0.53125,2.64412 0.13375,3.838 2.38,3.838 l 4.50125,0 -1.72,10.0575 -6.3525,0 c -10.19375,0 -12.17,-4.104 -12.04,-8.86475 l 0,-0.92913 c -4.7625,7.27688 -10.58625,10.98388 -19.0525,10.98388 -12.1795,0 -19.85425,-9.7935 -17.20387,-25.27687"
           id="path2420"
           style="fill:#ffffff;fill-opacity:1;fill-rule:nonzero;stroke:none" />
        <path
           inkscape:connector-curvature="0"
           d="m -429.19063,648.6128 13.10375,0 -2.5175,11.37887 c 4.9,-8.99562 10.58875,-12.4355 17.20125,-12.4355 3.57625,0 7.43125,0.58051 9.5525,1.77688 0,0 -3.3325,1.03562 -6.235,5.36075 -1.60125,2.38037 -2.61125,6.5225 -2.61125,6.5225 0,0 -1.76,-1.3555 -4.27625,-1.3555 -8.33625,0 -14.02625,4.8965 -16.275,17.47075 l -4.6325,26.86175 -13.1,0 9.79,-55.5805"
           id="path2422"
           style="fill:#ffffff;fill-opacity:1;fill-rule:nonzero;stroke:none" />
        <path
           inkscape:connector-curvature="0"
           d="m -553.29075,608.9473 c -19.77,0 -22.44588,13.95375 -22.98875,16.77537 -0.546,2.81888 -3.96488,22.89013 -3.96488,22.89013 l -11.44537,0 -1.98525,10.98388 11.43887,0 -8.249,46.96487 12.998,0 8.22663,-46.96487 9.11962,0 c 0,0 2.53663,-4.04938 4.86525,-6.32525 3.0215,-2.9575 6.38863,-4.65863 6.38863,-4.65863 l -18.40038,0 c 0,0 2.87938,-16.272 3.315,-18.4785 0.40325,-2.03425 1.52675,-8.2545 8.04338,-9.1695 7.9825,-1.12 13.15187,5.03612 13.15187,5.03612 l 8.31013,-8.60862 c 0,0 -7.55575,-8.445 -18.82375,-8.445"
           id="path2424"
           style="fill:#ffffff;fill-opacity:1;fill-rule:nonzero;stroke:none" />
      </g>
    </g>
  </g>
  <g
     inkscape:groupmode="layer"
     id="layer5"
     inkscape:label="Check-in here on"
     style="display:inline"
     sodipodi:insensitive="true"
     transform="translate(21.098553,28.241376)">
    <path
       inkscape:connector-curvature="0"
       id="path11737"
       d="m 536.88256,555.98636 c -7.2689,-2.8444 -11.5616,-8.0772 -12.8952,-15.7192 -1.6887,-9.67771 5.6467,-19.86022 15.7735,-21.89564 16.6967,-3.35592 29.6433,12.28915 22.742,27.48224 -4.2048,9.257 -15.9685,13.9094 -25.6203,10.1326 z m 13.1955,-8.6299 c 3.6505,-2.2258 5.9785,-8.2224 4.8844,-12.58158 -0.3753,-1.4953 -1.9747,-4.01107 -3.5542,-5.59059 -2.3435,-2.34355 -3.732,-2.87187 -7.5476,-2.87187 -3.9412,0 -5.1314,0.48789 -7.5769,3.10576 -2.3037,2.46612 -2.9012,4.02428 -2.9012,7.56578 0,5.509 1.2127,7.8776 5.3138,10.3782 4.0383,2.4623 7.3368,2.4607 11.3817,-0.01 z m 21.7719,7.7317 c -0.2841,-0.7403 -0.3929,-9.2052 -0.2419,-18.8109 l 0.2745,-17.46484 3.9727,0 c 3.8527,0 4.2017,0.29927 11.5507,9.90249 4.168,5.44637 8.0052,9.83785 8.5273,9.75885 0.5221,-0.079 1.1743,-4.53513 1.4493,-9.9025 l 0.5,-9.75884 3.5,0 3.5,0 0.2721,18.75004 0.272,18.75 -3.7987,0 c -3.651,0 -4.1086,-0.4082 -11.7692,-10.5 -4.3837,-5.775 -8.2935,-10.5 -8.6883,-10.5 -0.3949,0 -0.8461,4.6125 -1.0029,10.25 l -0.285,10.25 -3.758,0.3108 c -2.4618,0.2036 -3.9362,-0.1534 -4.2746,-1.0351 z"
       style="fill:#ffffff;display:inline"
       sodipodi:nodetypes="scssscsssssscccscsscscccccsssscsc" />
    <path
       sodipodi:nodetypes="ccccccccccsccscccscccsccssscccccccccccccccsccscsssssscscscccsscssscccscscscscscccscccccccsccsccscssssssssscsssccsssssscssssccssscscssccscsccscccccscscsccscsscscccccscscccscccscccssscsssscscscssscsssscccscccscscscscccsccscscscscscssscscccccccccscc"
       style="fill:#ffffff;display:inline"
       d="m 372.08838,475.85384 c -0.8169,-0.9844 -1.0596,-15.2442 -0.8724,-51.25 l 0.2594,-49.8862 11,0 11,0 0.5,19.5 0.5,19.5 20.2288,0.2706 20.2288,0.2707 0.2712,-19.7707 0.2712,-19.7706 11,0 11,0 0.2593,50.4352 c 0.2041,39.6853 -0.01,50.6056 -1,51.2347 -2.0484,1.3004 -19.1975,0.9919 -20.5593,-0.3699 -0.8505,-0.8505 -1.2,-6.8268 -1.2,-20.5207 l 0,-19.3207 -20.25,0.2707 -20.25,0.2707 -0.2723,19.4547 c -0.1964,14.0314 -0.6146,19.6722 -1.5,20.2347 -2.2261,1.4142 -19.3635,0.9543 -20.6147,-0.5532 z m 111,0 c -0.8169,-0.9844 -1.0596,-15.2442 -0.8724,-51.25 l 0.2594,-49.8862 37.3827,-0.2623 c 26.7605,-0.1878 37.7712,0.06 38.75,0.8724 2.0458,1.6979 1.8839,16.2304 -0.2041,18.3184 -1.3479,1.3479 -5.2652,1.5715 -27.5362,1.5715 l -25.9648,0 0.2862,9.75 0.2862,9.75 23.5,0.5 23.5,0.5 0,9.5 0,9.5 -23.5,0.5 -23.5,0.5 0,10 0,10 27,0.5 27,0.5 0.2897,9.4164 c 0.2111,6.8592 -0.061,9.6387 -1,10.2347 -0.7093,0.45 -17.7721,0.8251 -37.9173,0.8336 -29.7263,0.012 -36.8408,-0.2417 -37.7594,-1.3485 z m 98.1277,0.5337 c -0.991,-0.6291 -1.204,-11.5494 -1,-51.2347 l 0.2593,-50.4352 25.4292,-0.2676 c 27.0593,-0.2847 33.2531,0.331 41.5515,4.1301 13.0645,5.9811 19.9452,20.0935 17.4254,35.7397 -1.7307,10.747 -6.241,17.4564 -15.6561,23.2897 -2.3375,1.4482 -4.25,3.0428 -4.25,3.5434 0,0.5006 4.9872,8.1735 11.0826,17.051 6.4082,9.333 10.8501,16.7467 10.5314,17.5772 -0.4351,1.1338 -2.983,1.4365 -12.0924,1.4365 -9.7678,0 -11.7659,-0.2689 -13.0037,-1.75 -0.8043,-0.9625 -5.893,-8.275 -11.3081,-16.25 l -9.8456,-14.5 -8.4321,0 -8.4321,0 -0.2778,14.931 c -0.1661,8.9297 -0.7177,15.4611 -1.3724,16.25 -1.2262,1.4774 -18.4099,1.885 -20.6091,0.4889 z m 53.5535,-54.5183 c 6.8054,-3.6126 9.3949,-13.5493 5.2867,-20.2866 -3.1261,-5.1266 -8.3371,-6.4859 -23.5809,-6.1508 l -13,0.2858 -0.2813,12.9471 c -0.1548,7.1209 -0.037,13.5843 0.262,14.3631 0.8434,2.1978 26.7999,1.2374 31.3135,-1.1586 z m 51.7772,53.7769 c -1.3856,-1.3856 -1.5714,-7.3416 -1.5714,-50.3775 0,-40.0579 0.2451,-49.0095 1.3673,-49.9409 0.9788,-0.8123 11.9895,-1.0602 38.75,-0.8724 l 37.3827,0.2623 0.2855,9.0981 c 0.212,6.7538 -0.067,9.3904 -1.0817,10.2327 -0.9227,0.7658 -9.7945,1.2216 -27.2855,1.402 l -25.9183,0.2672 -0.2914,8.9154 c -0.211,6.4579 0.065,9.1413 1,9.7347 0.7103,0.4506 11.5452,0.8262 24.0776,0.8346 l 22.7862,0.015 -0.2862,9.75 -0.2862,9.75 -23.5,0.5 -23.5,0.5 0,10 0,10 26.4179,0.2669 c 17.4456,0.1763 26.8704,0.6424 27.75,1.3724 2.0126,1.6703 1.822,16.2279 -0.2393,18.2892 -1.371,1.371 -6.21,1.5715 -37.9286,1.5715 -31.7186,0 -36.5576,-0.2005 -37.9286,-1.5715 z m -442.0714,-127.0623 c -22.4121,-3.4493 -39.4151,-19.31391 -44.0272,-41.07941 -1.8234,-8.6051 -1.8143,-14.0026 0.038,-22.7868 4.1858,-19.8485 18.5204,-34.8871 38.1202,-39.9921 11.771,-3.066 29.5286,-1.4747 40.0452,3.5885 5.9388,2.8592 13.3237,8.7154 13.3237,10.5655 0,2.0472 -11.7854,15.3381 -13.6007,15.3381 -0.7671,0 -3.5332,-1.5322 -6.147,-3.4048 -15.1201,-10.8328 -34.5753,-7.9303 -43.8095,6.5359 -3.7893,5.9364 -5.78,14.3547 -5.1047,21.5869 1.5752,16.8684 13.9042,28.7368 29.6619,28.5538 7.9389,-0.092 13.4401,-2.0071 20.8327,-7.2514 l 5.638,-3.9997 6.7647,6.7128 c 3.7206,3.692 6.7646,7.2627 6.7646,7.9347 0,1.5164 -10.101,9.8336 -14.9285,12.29221 -8.2785,4.2162 -24.4166,6.8148 -33.5715,5.4058 z m 313.5,-0.4375 c -8.7628,-1.5391 -19.3229,-7.11231 -26.4574,-13.96321 -10.7658,-10.3378 -15.8478,-22.7243 -15.7716,-38.4405 0.1192,-24.5842 15.6123,-44.9619 38.7705,-50.9938 6.877,-1.7913 21.0991,-2.0027 28.6593,-0.4261 7.2935,1.5209 16.6475,6.101 21.8017,10.675 l 4.3099,3.8247 -5.7979,6.9476 c -8.552,10.2478 -7.7284,9.9725 -14.9815,5.0068 -7.3674,-5.0439 -14.4755,-7.0236 -22.58,-6.2887 -29.7125,2.6943 -36.5379,47.0219 -9.2928,60.3517 10.6297,5.2006 24.0946,3.0909 34.6559,-5.4299 2.0988,-1.6934 4.4048,-2.8529 5.1243,-2.5768 1.6241,0.6232 12.5596,12.9132 12.5596,14.1152 0,1.4106 -6.088,6.8138 -11.5,10.2066 -9.94,6.23131 -26.8186,9.21881 -39.5,6.99141 z m -246.3805,-2.4779 c -0.3407,-0.8879 -0.6195,-23.37051 -0.6195,-49.96121 0,-42.6183 0.1862,-48.533 1.5714,-49.9182 1.1776,-1.1775 3.6636,-1.5714 9.9182,-1.5714 4.5908,0 9.0586,0.2731 9.9286,0.607 1.3633,0.5231 1.5839,3.1817 1.5971,19.25 0.01,10.2536 0.3787,19.2155 0.8228,19.9152 0.6181,0.974 5.361,1.2084 20.2346,1 l 19.4273,-0.2722 0.2727,-18.9249 c 0.1714,-11.894 0.6813,-19.4172 1.3724,-20.25 1.2309,-1.4832 18.408,-1.8956 20.6142,-0.495 0.991,0.6291 1.2041,11.5494 1,51.2347 l -0.2593,50.43521 -11,0 -11,0 -0.5,-20.00001 -0.5,-20 -19.75,-0.2712 c -10.8625,-0.1491 -19.8384,-0.1491 -19.9464,0 -0.1081,0.1492 -0.4455,9.2712 -0.75,20.2712 l -0.5536,20.00001 -10.6305,0.2826 c -9.0308,0.2401 -10.7237,0.04 -11.25,-1.3318 z m 111.0589,0.8942 c -0.3731,-0.3731 -0.6784,-23.01341 -0.6784,-50.31171 0,-37.2704 0.2989,-49.9322 1.2,-50.8333 0.8892,-0.8892 10.5841,-1.2 37.4286,-1.2 31.6017,0 36.4292,0.2007 37.8,1.5714 2.0611,2.0611 2.2519,16.6189 0.2397,18.2889 -0.8774,0.7282 -10.1745,1.1964 -27.25,1.3725 l -25.9183,0.2672 0,9.5 0,9.5 23.5,0.5 23.5,0.5 0.2862,9.75 c 0.1574,5.3625 0.1574,9.8415 0,9.9535 -0.1574,0.1119 -10.8612,0.4494 -23.7862,0.75 l -23.5,0.5465 -0.2897,9.4164 c -0.2111,6.8592 0.061,9.6387 1,10.2347 0.7093,0.45 13.1185,0.8252 27.5759,0.8336 l 26.2862,0.015 -0.2862,9.75 -0.2862,9.75001 -38.0716,0.2617 c -20.9394,0.1439 -38.3769,-0.043 -38.75,-0.4167 z m 205.9883,-0.012 c -0.3667,-0.3667 -0.6667,-23.26851 -0.6667,-50.89301 0,-44.8774 0.1685,-50.291 1.5818,-50.8333 0.87,-0.3339 5.3378,-0.607 9.9286,-0.607 6.2546,0 8.7406,0.3939 9.9182,1.5714 1.3232,1.3233 1.5714,4.7136 1.5714,21.4686 0,15.5504 0.2731,19.7746 1.25,19.336 0.6875,-0.3087 8.45,-8.4185 17.25,-18.0219 8.8,-9.6033 17.7044,-19.0258 19.7876,-20.9388 l 3.7877,-3.4781 11.6308,0.2814 c 8.0074,0.1937 11.756,0.659 12.033,1.4934 0.2212,0.6667 -8.1754,10.1167 -18.6591,21 -10.4838,10.8834 -19.0656,20.5371 -19.0707,21.4527 -0.01,0.9155 9.2154,14.1215 20.49,29.3465 11.2747,15.225 20.2481,28.08841 19.941,28.58531 -0.3071,0.4969 -6.1267,0.9035 -12.9324,0.9035 l -12.374,0 -3.4014,-4.25001 c -1.8708,-2.3375 -8.7206,-11.6034 -15.2217,-20.5908 -6.5012,-8.9874 -12.5085,-16.6049 -13.3496,-16.9276 -1.0145,-0.3893 -3.1467,1.2402 -6.3342,4.8408 l -4.8049,5.4276 -0.011,14.1682 c -0.01,7.7925 -0.2842,14.88001 -0.6181,15.75001 -0.4987,1.2997 -2.4307,1.5818 -10.8333,1.5818 -5.6245,0 -10.5263,-0.3 -10.893,-0.6667 z m 158.9528,-0.8825 c -0.3407,-0.8879 -0.6195,-23.37051 -0.6195,-49.96121 0,-42.6183 0.1862,-48.533 1.5714,-49.9182 1.19,-1.1899 3.6784,-1.5677 10.25,-1.5561 4.7732,0.01 9.2453,0.3751 9.9379,0.8148 0.991,0.6291 1.2041,11.5494 1,51.2347 l -0.2593,50.43521 -10.6305,0.2826 c -9.0308,0.2401 -10.7237,0.04 -11.25,-1.3318 z m 48,0 c -0.3407,-0.8879 -0.6195,-23.37051 -0.6195,-49.96121 0,-42.6183 0.1862,-48.533 1.5714,-49.9182 2.1214,-2.1214 17.0808,-2.2265 19.9561,-0.1402 1.0849,0.7871 11.6475,14.2621 23.4725,29.9444 11.825,15.6823 22.0625,28.5382 22.75,28.5688 0.9729,0.043 1.25,-6.4601 1.25,-29.3374 0,-25.8801 0.189,-29.4656 1.5818,-30 0.87,-0.3339 5.3378,-0.607 9.9286,-0.607 6.2546,0 8.7406,0.3939 9.9182,1.5714 1.3852,1.3852 1.5714,7.2999 1.5714,49.9182 0,26.5907 -0.2731,49.05861 -0.607,49.92861 -0.4935,1.286 -2.352,1.5818 -9.94,1.5818 l -9.333,0 -23.604,-31.00001 c -12.9822,-17.05 -24.0277,-31 -24.5455,-31 -0.5626,0 -1.0481,12.3759 -1.2061,30.75 l -0.2644,30.75001 -10.6305,0.2826 c -9.0308,0.2401 -10.7237,0.04 -11.25,-1.3318 z m -113.1923,-34.78001 c -0.2805,-0.731 -0.3788,-5.3435 -0.2186,-10.25 l 0.2914,-8.9208 22.25,-0.2692 22.25,-0.2691 0,10.5191 0,10.5192 -22.0314,0 c -17.4023,0 -22.1385,-0.2793 -22.5414,-1.3292 z"
       id="path11741"
       inkscape:connector-curvature="0" />
  </g>
  <g
     inkscape:groupmode="layer"
     id="layer3"
     inkscape:label="Crown"
     sodipodi:insensitive="true"
     style="display:inline"
     transform="translate(21.098553,28.241376)">
    <path
       inkscape:connector-curvature="0"
       id="path10932"
       d="m 534.12554,176.91527 c -1.2187,-0.49305 -11.2684,-30.556 -11.2684,-33.70877 0,-1.48806 3.8612,-1.63508 42.94103,-1.63508 23.6175,0 43.1735,0.37622 43.4577,0.83604 0.6017,0.97367 -9.985,31.96057 -11.5732,33.87426 -0.8339,1.00481 -7.836,1.27226 -31.6979,1.21075 -16.84523,-0.0434 -31.18183,-0.30316 -31.85923,-0.5772 z m -15.1432,-42.59385 c -0.9921,-2.3375 -2.6122,-6.3875 -3.6003,-9 -1.7238,-4.55759 -2.4368,-5.20048 -5.3351,-4.81081 -5.3126,0.71424 -12.1773,-5.3352 -12.1861,-10.73885 -0.01,-3.56753 2.7313,-8.01197 5.9636,-9.68341 3.9079,-2.02089 6.8809,-1.90692 10.6796,0.40941 4.194,2.55737 5.9519,7.72934 4.3139,12.69248 -1.3768,4.17169 -0.9291,4.69641 5.5392,6.49226 10.8259,3.00569 25.4128,-1.18181 33.988,-9.75697 5.10033,-5.1003 5.61333,-7.42676 2.0572,-9.3299 -3.2963,-1.76413 -5.8552,-7.33613 -5.0509,-10.99816 0.8515,-3.87689 5.0031,-7.84114 8.99633,-8.59026 6.0693,-1.13861 12.516,4.41052 12.5057,10.76455 -0.01,3.14967 -3.4097,8.47871 -5.9273,9.27776 -3.1373,0.99574 -2.5193,3.12612 2.4467,8.43522 8.4262,9.00827 24.0255,13.33571 35.4843,9.8438 l 4.5,-1.37132 -0.3367,-6.08012 c -0.3087,-5.5765 -0.088,-6.35868 2.668,-9.44291 2.5973,-2.90689 3.6369,-3.36277 7.6687,-3.36277 4.0043,0 5.0768,0.46196 7.582,3.26578 5.2364,5.86055 3.2829,14.18359 -4.0412,17.21731 -1.6648,0.68959 -3.9447,1.01378 -5.0665,0.72043 -2.4753,-0.64731 -3.9868,1.44048 -7.0924,9.79648 -1.2265,3.3 -2.6567,6.5625 -3.1784,7.25 -0.7339,0.96737 -11.1035,1.25 -45.8615,1.25 l -44.91313,0 -1.8037,-4.25 z"
       style="fill:#f3f8ed" />
  </g>
</svg>
