<?xml version="1.0" encoding="UTF-8" standalone="no"?>
<!-- Created with Inkscape (http://www.inkscape.org/) -->

<svg
   xmlns:dc="http://purl.org/dc/elements/1.1/"
   xmlns:cc="http://creativecommons.org/ns#"
   xmlns:rdf="http://www.w3.org/1999/02/22-rdf-syntax-ns#"
   xmlns:svg="http://www.w3.org/2000/svg"
   xmlns="http://www.w3.org/2000/svg"
   xmlns:sodipodi="http://sodipodi.sourceforge.net/DTD/sodipodi-0.dtd"
   xmlns:inkscape="http://www.inkscape.org/namespaces/inkscape"
   width="744.09448819"
   height="1052.3622047"
   id="svg2"
   inkscape:label="Pozadí"
   version="1.1"
   inkscape:version="0.48.1 "
   sodipodi:docname="Nový dokument 1">
  <defs
     id="defs3" />
  <sodipodi:namedview
     id="base"
     pagecolor="#ffffff"
     bordercolor="#666666"
     borderopacity="1.0"
     inkscape:pageopacity="0.0"
     inkscape:pageshadow="2"
     inkscape:zoom="0.35"
     inkscape:cx="362.34012"
     inkscape:cy="634.28571"
     inkscape:document-units="px"
     inkscape:current-layer="layer1"
     showgrid="false"
     inkscape:window-width="701"
     inkscape:window-height="878"
     inkscape:window-x="100"
     inkscape:window-y="100"
     inkscape:window-maximized="0" />
  <metadata
     id="metadata6">
    <rdf:RDF>
      <cc:Work
         rdf:about="">
        <dc:format>image/svg+xml</dc:format>
        <dc:type
           rdf:resource="http://purl.org/dc/dcmitype/StillImage" />
        <dc:title></dc:title>
      </cc:Work>
    </rdf:RDF>
  </metadata>
  <g
     inkscape:label="Vrstva 1"
     inkscape:groupmode="layer"
     id="layer1">
    <path
       id="path3001"
       d="m 18.968778,177.87781 716.348172,0 0,342.93375 -716.348172,0 0,-342.93375 z"
       style="fill:#2c2c2b;stroke:none"
       inkscape:connector-curvature="0" />
    <path
       id="path3003"
       d="m 244.87945,419.60781 c -5.085,0 -11.925,0.97375 -19.73375,-0.765 -5.2225,-1.1625 -10.5975,-2.58125 -15.565,-4.63 -4.95375,-2.0425 -9.6775,-4.59 -14.22625,-7.69375 -4.5075,-3.06 -8.64375,-6.615 -12.365,-10.6275 -14.6025,-16.25375 -21.92,-37.47 -21.92,-63.64875 0,-27.91625 7.64875,-50.1675 22.91,-66.75375 15.4275,-16.62375 36.51875,-24.9375 63.23625,-24.9375 23.98875,0 43.4675,8.065 58.3975,24.235 14.92875,16.13125 22.415,37.265 22.415,63.36125 0,10.83625 -1.15875,21.05 -3.515,30.645 -2.315,9.6375 -5.8725,18.28 -10.58625,26.055 -4.715,7.735 -10.84125,14.10125 -17.825,19.6875 -3.95625,3.165 -5.95875,4.8525 -11.1225,7.22375 21.48,23.37125 11.08125,23.31875 87.69125,21.405 27.52625,-0.69 53.41125,24.5125 19.065,24.4725 -27.52125,-0.0362 -46.90875,0.72875 -77.5675,0.47375 -42.2925,-0.35375 -50.5925,-18.10875 -69.28875,-38.5025 z m 0.56875,-141.135 c -12.77,0 -23.22125,4.71375 -31.19625,14.22375 -7.9625,9.5025 -11.9075,22.03125 -11.9075,37.515 0,15.38125 3.8075,27.91 11.61125,37.4125 7.735,9.41125 17.96125,14.05875 30.43125,14.05875 13.365,0 23.91875,-4.505 31.59125,-13.46375 7.7025,-8.9925 11.545,-21.56875 11.545,-37.71125 0,-16.67125 -3.80125,-29.4875 -11.245,-38.47 -7.46875,-9.0075 -17.6975,-13.565 -30.83,-13.565 z"
       style="fill:#ffffff;stroke:none"
       inkscape:connector-curvature="0" />
    <g
       id="g3005"
       transform="matrix(1.25,0,0,1.25,8.6457029,18.119057)">
      <path
         id="path3007"
         d="m 272.19,321.671 0,-8.069 c -1.974,2.874 -4.554,5.143 -7.741,6.805 -3.203,1.645 -6.58,2.476 -10.129,2.476 -3.619,0 -6.858,-0.796 -9.732,-2.372 -2.874,-1.593 -4.952,-3.827 -6.251,-6.701 -1.282,-2.875 -1.922,-6.858 -1.922,-11.931 l 0,-34.078 14.251,0 0,24.745 c 0,7.584 0.26,12.225 0.797,13.939 0.519,1.697 1.471,3.048 2.857,4.052 1.385,1.004 3.151,1.489 5.281,1.489 2.442,0 4.623,-0.658 6.545,-1.991 1.922,-1.351 3.239,-2.996 3.948,-4.97 0.71,-1.991 1.074,-6.84 1.074,-14.546 l 0,-22.718 14.251,0 0,53.87 -13.229,0 z"
         style="fill:#2c2c2b;stroke:none"
         inkscape:connector-curvature="0" />
      <path
         id="path3009"
         d="m 310.839,284.234 -12.935,-2.338 c 1.454,-5.212 3.948,-9.056 7.498,-11.567 3.567,-2.493 8.831,-3.757 15.827,-3.757 6.372,0 11.099,0.761 14.216,2.268 3.1,1.506 5.299,3.411 6.563,5.731 1.264,2.321 1.905,6.563 1.905,12.762 l -0.156,16.641 c 0,4.727 0.225,8.225 0.692,10.476 0.451,2.234 1.316,4.658 2.563,7.221 l -14.112,0 c -0.364,-0.952 -0.831,-2.355 -1.368,-4.208 -0.225,-0.848 -0.399,-1.402 -0.503,-1.679 -2.441,2.372 -5.039,4.138 -7.809,5.333 -2.771,1.177 -5.732,1.766 -8.883,1.766 -5.541,0 -9.922,-1.506 -13.108,-4.502 -3.204,-3.013 -4.797,-6.823 -4.797,-11.429 0,-3.03 0.727,-5.749 2.182,-8.138 1.455,-2.39 3.498,-4.208 6.112,-5.472 2.615,-1.264 6.407,-2.372 11.342,-3.325 6.65,-1.246 11.273,-2.424 13.836,-3.498 l 0,-1.419 c 0,-2.754 -0.675,-4.693 -2.026,-5.87 -1.351,-1.161 -3.896,-1.749 -7.654,-1.749 -2.545,0 -4.519,0.502 -5.939,1.506 -1.42,0.987 -2.563,2.736 -3.446,5.247 z m 19.065,11.567 c -1.818,0.606 -4.71,1.333 -8.675,2.182 -3.949,0.848 -6.529,1.679 -7.758,2.476 -1.853,1.333 -2.788,2.995 -2.788,5.022 0,2.008 0.745,3.722 2.234,5.177 1.489,1.455 3.376,2.182 5.68,2.182 2.58,0 5.021,-0.849 7.359,-2.528 1.732,-1.282 2.857,-2.857 3.394,-4.728 0.381,-1.212 0.554,-3.532 0.554,-6.943 l 0,-2.84 z m 77.073,25.87 -14.251,0 0,-27.498 c 0,-5.818 -0.311,-9.575 -0.918,-11.29 -0.606,-1.697 -1.61,-3.03 -2.978,-3.982 -1.368,-0.936 -3.013,-1.42 -4.935,-1.42 -2.476,0 -4.693,0.675 -6.649,2.026 -1.957,1.368 -3.307,3.151 -4.035,5.385 -0.727,2.233 -1.091,6.355 -1.091,12.381 l 0,24.398 -14.251,0 0,-53.87 13.229,0 0,7.913 c 4.711,-6.095 10.633,-9.142 17.767,-9.142 3.134,0 6.026,0.571 8.623,1.697 2.598,1.142 4.572,2.58 5.905,4.346 1.333,1.766 2.268,3.757 2.788,5.991 0.536,2.234 0.796,5.42 0.796,9.576 l 0,33.489 z m 39.152,-53.87 0,11.359 -9.732,0 0,21.715 c 0,4.398 0.087,6.96 0.277,7.688 0.191,0.727 0.606,1.316 1.264,1.801 0.658,0.467 1.472,0.71 2.407,0.71 1.334,0 3.238,-0.468 5.749,-1.368 l 1.212,11.047 c -3.324,1.42 -7.065,2.13 -11.272,2.13 -2.563,0 -4.884,-0.433 -6.944,-1.281 -2.061,-0.866 -3.567,-1.991 -4.537,-3.359 -0.97,-1.368 -1.628,-3.221 -2.009,-5.559 -0.294,-1.645 -0.45,-5.004 -0.45,-10.043 l 0,-23.481 -6.545,0 0,-11.359 6.545,0 0,-10.719 14.303,-8.311 0,19.03 9.732,0 z m 9.905,-7.307 0,-13.195 14.251,0 0,13.195 -14.251,0 z m 0,61.177 0,-53.87 14.251,0 0,53.87 -14.251,0 z"
         style="fill:#ffffff;stroke:none"
         inkscape:connector-curvature="0" />
    </g>
    <path
       id="path3011"
       d="m 348.8832,420.20531 0,-10.08625 c -2.4675,3.5925 -5.6925,6.4275 -9.675,8.50625 -4.005,2.05625 -8.225,3.095 -12.6625,3.095 -4.52375,0 -8.57125,-0.995 -12.165,-2.965 -3.5925,-1.99125 -6.19,-4.78375 -7.81375,-8.3775 -1.4475,-3.245 -2.24,-7.6225 -2.38,-13.115 3.665,-3.74 6.95,-7.83875 9.74125,-12.41625 3.2375,-5.3425 5.93125,-11.09375 8.05,-17.29625 l 0,16.2475 c 0,9.48125 0.325,15.28125 0.99625,17.425 0.64875,2.12125 1.83875,3.81 3.57125,5.065 1.73125,1.255 3.93875,1.86125 6.60125,1.86125 3.0525,0 5.77875,-0.8225 8.18125,-2.48875 2.40375,-1.68875 4.04875,-3.745 4.935,-6.2125 0.88875,-2.48875 1.3425,-8.55 1.3425,-18.1825 l 0,-28.3975 17.81375,0 0,67.3375 -16.53625,0 z"
       style="fill:#ffffff;stroke:none"
       inkscape:connector-curvature="0" />
    <path
       id="path3013"
       d="m 18.968778,543.91281 716.348172,0 0,342.93375 -716.348172,0 0,-342.93375 z"
       style="fill:#ffffff;stroke:none"
       inkscape:connector-curvature="0" />
    <path
       id="path3015"
       d="m 244.87945,785.64281 c -5.085,0 -11.925,0.9725 -19.73375,-0.765 -5.2225,-1.16375 -10.5975,-2.5825 -15.565,-4.63 -4.95375,-2.04375 -9.6775,-4.59 -14.22625,-7.69375 -4.5075,-3.06 -8.64375,-6.615 -12.365,-10.6275 -14.6025,-16.255 -21.92,-37.47125 -21.92,-63.64875 0,-27.9175 7.64875,-50.1675 22.91,-66.75375 15.4275,-16.62375 36.51875,-24.93875 63.23625,-24.93875 23.98875,0 43.4675,8.06625 58.3975,24.235 14.92875,16.1325 22.415,37.26625 22.415,63.3625 0,10.835 -1.15875,21.04875 -3.515,30.645 -2.315,9.63625 -5.8725,18.28 -10.58625,26.055 -4.715,7.735 -10.84125,14.1 -17.825,19.68625 -3.95625,3.16625 -5.95875,4.85375 -11.1225,7.225 21.48,23.37 11.08125,23.3175 87.69125,21.40375 27.52625,-0.68875 53.41125,24.51375 19.065,24.4725 -27.52125,-0.035 -46.90875,0.73 -77.5675,0.475 -42.2925,-0.355 -50.5925,-18.11 -69.28875,-38.5025 z m 0.56875,-141.135 c -12.77,0 -23.22125,4.7125 -31.19625,14.22375 -7.9625,9.50125 -11.9075,22.03125 -11.9075,37.515 0,15.38125 3.8075,27.91 11.61125,37.4125 7.735,9.41 17.96125,14.05875 30.43125,14.05875 13.365,0 23.91875,-4.505 31.59125,-13.465 7.7025,-8.99125 11.545,-21.5675 11.545,-37.71 0,-16.67125 -3.80125,-29.4875 -11.245,-38.47125 -7.46875,-9.00625 -17.6975,-13.56375 -30.83,-13.56375 z"
       style="fill:#2c2c2b;stroke:none"
       inkscape:connector-curvature="0" />
    <g
       id="g3017"
       transform="matrix(1.25,0,0,1.25,8.6457029,18.119057)">
      <path
         id="path3019"
         d="m 272.19,614.499 0,-8.07 c -1.974,2.875 -4.554,5.143 -7.741,6.806 -3.203,1.645 -6.58,2.476 -10.129,2.476 -3.619,0 -6.858,-0.797 -9.732,-2.372 -2.874,-1.594 -4.952,-3.827 -6.251,-6.702 -1.282,-2.874 -1.922,-6.857 -1.922,-11.93 l 0,-34.078 14.251,0 0,24.744 c 0,7.585 0.26,12.225 0.797,13.94 0.519,1.697 1.471,3.047 2.857,4.052 1.385,1.004 3.151,1.489 5.281,1.489 2.442,0 4.623,-0.658 6.545,-1.991 1.922,-1.351 3.239,-2.996 3.948,-4.97 0.71,-1.992 1.074,-6.84 1.074,-14.546 l 0,-22.718 14.251,0 0,53.87 -13.229,0 z"
         style="fill:#ffffff;stroke:none"
         inkscape:connector-curvature="0" />
      <path
         id="path3021"
         d="m 310.839,577.062 -12.935,-2.338 c 1.454,-5.212 3.948,-9.056 7.498,-11.567 3.567,-2.494 8.831,-3.758 15.827,-3.758 6.372,0 11.099,0.762 14.216,2.269 3.1,1.506 5.299,3.411 6.563,5.731 1.264,2.321 1.905,6.563 1.905,12.762 l -0.156,16.641 c 0,4.727 0.225,8.225 0.692,10.476 0.451,2.234 1.316,4.658 2.563,7.221 l -14.112,0 c -0.364,-0.953 -0.831,-2.355 -1.368,-4.208 -0.225,-0.848 -0.399,-1.403 -0.503,-1.68 -2.441,2.373 -5.039,4.139 -7.809,5.334 -2.771,1.177 -5.732,1.766 -8.883,1.766 -5.541,0 -9.922,-1.506 -13.108,-4.502 -3.204,-3.013 -4.797,-6.823 -4.797,-11.429 0,-3.03 0.727,-5.749 2.182,-8.138 1.455,-2.39 3.498,-4.208 6.112,-5.472 2.615,-1.264 6.407,-2.372 11.342,-3.325 6.65,-1.247 11.273,-2.424 13.836,-3.498 l 0,-1.42 c 0,-2.753 -0.675,-4.692 -2.026,-5.87 -1.351,-1.16 -3.896,-1.749 -7.654,-1.749 -2.545,0 -4.519,0.503 -5.939,1.507 -1.42,0.987 -2.563,2.736 -3.446,5.247 z m 19.065,11.567 c -1.818,0.606 -4.71,1.333 -8.675,2.181 -3.949,0.849 -6.529,1.68 -7.758,2.476 -1.853,1.334 -2.788,2.996 -2.788,5.022 0,2.009 0.745,3.723 2.234,5.178 1.489,1.454 3.376,2.182 5.68,2.182 2.58,0 5.021,-0.849 7.359,-2.529 1.732,-1.281 2.857,-2.857 3.394,-4.727 0.381,-1.212 0.554,-3.532 0.554,-6.944 l 0,-2.839 z m 77.073,25.87 -14.251,0 0,-27.498 c 0,-5.818 -0.311,-9.576 -0.918,-11.29 -0.606,-1.697 -1.61,-3.03 -2.978,-3.983 -1.368,-0.935 -3.013,-1.42 -4.935,-1.42 -2.476,0 -4.693,0.676 -6.649,2.026 -1.957,1.368 -3.307,3.152 -4.035,5.385 -0.727,2.234 -1.091,6.355 -1.091,12.381 l 0,24.399 -14.251,0 0,-53.87 13.229,0 0,7.913 c 4.711,-6.095 10.633,-9.143 17.767,-9.143 3.134,0 6.026,0.572 8.623,1.697 2.598,1.143 4.572,2.58 5.905,4.347 1.333,1.766 2.268,3.757 2.788,5.991 0.536,2.234 0.796,5.42 0.796,9.576 l 0,33.489 z m 39.152,-53.87 0,11.359 -9.732,0 0,21.714 c 0,4.399 0.087,6.961 0.277,7.689 0.191,0.727 0.606,1.316 1.264,1.8 0.658,0.468 1.472,0.71 2.407,0.71 1.334,0 3.238,-0.467 5.749,-1.368 l 1.212,11.048 c -3.324,1.42 -7.065,2.13 -11.272,2.13 -2.563,0 -4.884,-0.433 -6.944,-1.281 -2.061,-0.866 -3.567,-1.992 -4.537,-3.36 -0.97,-1.368 -1.628,-3.221 -2.009,-5.558 -0.294,-1.645 -0.45,-5.004 -0.45,-10.044 l 0,-23.48 -6.545,0 0,-11.359 6.545,0 0,-10.719 14.303,-8.312 0,19.031 9.732,0 z m 9.905,-7.308 0,-13.195 14.251,0 0,13.195 -14.251,0 z m 0,61.178 0,-53.87 14.251,0 0,53.87 -14.251,0 z"
         style="fill:#2c2c2b;stroke:none"
         inkscape:connector-curvature="0" />
    </g>
    <path
       id="path3023"
       d="m 348.8832,786.24031 0,-10.0875 c -2.4675,3.59375 -5.6925,6.42875 -9.675,8.5075 -4.005,2.05625 -8.225,3.095 -12.6625,3.095 -4.52375,0 -8.57125,-0.99625 -12.165,-2.96625 -3.5925,-1.99125 -6.19,-4.78375 -7.81375,-8.37625 -1.4475,-3.24625 -2.24,-7.62375 -2.38,-13.115 3.665,-3.74125 6.95,-7.83875 9.74125,-12.4175 3.2375,-5.34125 5.93125,-11.09375 8.05,-17.295 l 0,16.2475 c 0,9.48125 0.325,15.28125 0.99625,17.42375 0.64875,2.1225 1.83875,3.81 3.57125,5.065 1.73125,1.25625 3.93875,1.86125 6.60125,1.86125 3.0525,0 5.77875,-0.8225 8.18125,-2.48875 2.40375,-1.6875 4.04875,-3.74375 4.935,-6.2125 0.88875,-2.48875 1.3425,-8.54875 1.3425,-18.18125 l 0,-28.39875 17.81375,0 0,67.33875 -16.53625,0 z"
       style="fill:#2c2c2b;stroke:none"
       inkscape:connector-curvature="0" />
  </g>
</svg>
