<?xml version="1.0" encoding="UTF-8" standalone="no"?>
<!-- Created with Inkscape (http://www.inkscape.org/) -->

<svg
   xmlns:dc="http://purl.org/dc/elements/1.1/"
   xmlns:cc="http://creativecommons.org/ns#"
   xmlns:rdf="http://www.w3.org/1999/02/22-rdf-syntax-ns#"
   xmlns:svg="http://www.w3.org/2000/svg"
   xmlns="http://www.w3.org/2000/svg"
   xmlns:sodipodi="http://sodipodi.sourceforge.net/DTD/sodipodi-0.dtd"
   xmlns:inkscape="http://www.inkscape.org/namespaces/inkscape"
   width="41.559429"
   height="118.78337"
   id="svg2"
   inkscape:label="Pozadí"
   version="1.1"
   inkscape:version="0.48.1 r9760"
   sodipodi:docname="Nový dokument 15">
  <defs
     id="defs27918" />
  <sodipodi:namedview
     id="base"
     pagecolor="#ffffff"
     bordercolor="#666666"
     borderopacity="1.0"
     inkscape:pageopacity="0.0"
     inkscape:pageshadow="2"
     inkscape:zoom="0.35"
     inkscape:cx="-24.22029"
     inkscape:cy="-152.03689"
     inkscape:document-units="px"
     inkscape:current-layer="layer1"
     showgrid="false"
     fit-margin-top="0"
     fit-margin-left="0"
     fit-margin-right="0"
     fit-margin-bottom="0"
     inkscape:window-width="594"
     inkscape:window-height="400"
     inkscape:window-x="542"
     inkscape:window-y="324"
     inkscape:window-maximized="0" />
  <metadata
     id="metadata27921">
    <rdf:RDF>
      <cc:Work
         rdf:about="">
        <dc:format>image/svg+xml</dc:format>
        <dc:type
           rdf:resource="http://purl.org/dc/dcmitype/StillImage" />
        <dc:title></dc:title>
      </cc:Work>
    </rdf:RDF>
  </metadata>
  <g
     inkscape:label="Vrstva 1"
     inkscape:groupmode="layer"
     id="layer1"
     transform="translate(-399.22029,-261.54193)">
    <g
       style="display:inline"
       id="g3000"
       transform="matrix(0.70228276,0,0,0.70228276,-278.83243,57.72015)">
      <path
         style="fill:#fdfdfd"
         d="m 965.49817,374.79698 0.98889,-83.49068 28.59993,-1.07879 29.58881,0 0,84.56947 0,84.56948 -29.58881,0 -28.15044,-1.34849 z"
         id="path3006"
         inkscape:connector-curvature="0"
         sodipodi:nodetypes="ccccccccc" />
      <path
         style="fill:#ababab"
         d="m 966.33757,458.52706 c -0.83373,-0.83373 -0.8394,-1.399 -0.8394,-83.73008 0,-82.33107 0.006,-82.89634 0.8394,-83.73007 0.82306,-0.82306 1.399,-0.8394 29.58882,-0.8394 l 28.74941,0 0,84.56947 0,84.56948 -28.74941,0 c -28.18982,0 -28.76576,-0.0163 -29.58882,-0.8394 z m 34.12793,-12.48995 c 5.9541,-2.79275 9.8483,-8.46543 10.2518,-14.93415 0.3685,-5.90647 -1.3903,-10.17058 -5.9888,-14.51971 -2.7194,-2.57187 -4.84832,-3.59307 -8.87794,-4.25855 -10.67224,-1.76248 -20.63657,6.65132 -20.68904,17.46968 -0.0227,4.67623 1.84171,9.1137 5.26912,12.54111 3.96542,3.96542 7.42943,5.31989 13.1874,5.1564 3.47313,-0.0986 4.3559,-0.28616 6.84746,-1.45478 z m -11.21061,-4.40986 c -1.99926,-1.14619 -3.19144,-3.26396 -3.19144,-5.66922 0,-2.0874 1.28637,-4.89159 2.55551,-5.57081 1.00943,-0.54023 0.89814,-0.61593 1.85349,1.26067 0.72275,1.41972 0.71942,1.46319 -0.15648,2.04477 -1.08582,0.72096 -1.22218,3.05534 -0.22673,3.88149 0.89298,0.74111 4.88547,0.75596 5.7717,0.0215 0.96273,-0.79791 0.8889,-3.10557 -0.12883,-4.02659 -0.77513,-0.70148 -0.78438,-0.82317 -0.15647,-2.05863 0.87223,-1.71618 0.7832,-1.65793 1.74624,-1.14253 2.57198,1.37649 3.48312,6.55507 1.63897,9.31557 -1.93557,2.89737 -6.46164,3.8038 -9.70596,1.94381 z m 1.26548,-12.05052 c -4.47641,-1.4269 -5.97471,-7.71556 -2.677,-11.23591 1.22045,-1.30285 1.72504,-1.18941 2.56748,0.57722 0.70454,1.47743 0.70071,1.53897 -0.13211,2.1223 -0.84545,0.59218 -1.09931,1.95335 -0.60469,3.24232 0.40994,1.06829 3.15929,1.60543 5.05291,0.9872 1.4747,-0.48147 1.63118,-0.67619 1.75418,-2.18289 0.1071,-1.31186 -0.057,-1.79916 -0.79302,-2.35432 -0.91913,-0.6933 -0.92057,-0.71276 -0.14949,-2.0181 0.92473,-1.56545 1.41953,-1.63739 2.5705,-0.37373 1.40484,1.54238 1.80449,2.65275 1.80284,5.00881 -0.003,3.89878 -2.10093,6.07338 -6.21157,6.43777 -1.08405,0.0961 -2.51507,0.001 -3.18003,-0.21067 z m 1.68811,-31.3099 c 2.57178,-1.23125 5.34331,-4.10797 6.56867,-6.81798 1.22273,-2.70421 1.20827,-7.47191 -0.0311,-10.25821 -1.25291,-2.8167 -4.84164,-6.28403 -7.40974,-7.15907 -2.63756,-0.8987 -6.64373,-0.89959 -9.29015,-0.002 -3.04002,1.03102 -7.01281,5.10704 -7.90458,8.10998 -1.45589,4.90249 -0.38119,9.82596 2.87645,13.17782 4.21235,4.33419 9.96508,5.45119 15.19048,2.94951 z m -10.48193,-7.59121 c -0.15389,-0.15389 -0.2798,-2.11676 -0.2798,-4.36194 0,-4.77396 -0.18467,-4.59165 4.65103,-4.59165 3.26502,0 3.32327,0.0184 3.32327,1.04925 0,1.04593 0.0127,1.04925 4.00717,1.04925 l 4.00717,0 -0.12495,2.62312 -0.12495,2.62312 -3.88222,0.12068 c -3.53668,0.10993 -3.88222,0.19398 -3.88222,0.94432 0,0.75624 -0.30343,0.82365 -3.70735,0.82365 -2.03904,0 -3.83326,-0.12591 -3.98715,-0.2798 z m -5.07636,-2.47823 c -1.02725,-1.02724 -0.83587,-2.98287 0.36917,-3.77245 1.23985,-0.81237 2.52611,-0.49475 3.40048,0.83971 1.52002,2.31986 -1.79978,4.90262 -3.76965,2.93274 z m 44.24831,4.53022 c 0,-3.52799 -0.6854,-4.71009 -2.731,-4.71009 -0.8995,0 -1.5956,0.2706 -1.8892,0.73448 -0.3329,0.52597 -0.5275,0.58554 -0.6854,0.20985 -0.1212,-0.28855 -0.8591,-0.52463 -1.6396,-0.52463 -1.8407,0 -2.2882,0.85648 -2.2882,4.37926 l 0,2.75564 4.6167,0 4.6167,0 0,-2.84451 z m -7.475,-0.82787 c 0.1035,-1.25065 0.3027,-1.57387 0.9697,-1.57387 0.667,0 0.8661,0.32322 0.9696,1.57387 0.1202,1.45147 0.045,1.57388 -0.9696,1.57388 -1.0144,0 -1.0898,-0.12241 -0.9697,-1.57388 z m 3.3576,0.0425 c 0.167,-1.96337 1.3657,-2.83639 2.2534,-1.64109 0.3327,0.44808 0.6049,1.34519 0.6049,1.99358 0,1.0713 -0.1363,1.17888 -1.4943,1.17888 -1.4633,0 -1.4916,-0.0317 -1.364,-1.53137 z m -0.301,-7.55738 c 0.4554,-0.31039 1.6358,-0.56434 2.6232,-0.56434 1.5154,0 1.7952,-0.13083 1.7952,-0.8394 0,-0.68782 -0.2798,-0.8394 -1.5494,-0.8394 -1.057,0 -2.4478,-0.53364 -4.3753,-1.6788 -1.5543,-0.92334 -2.9345,-1.6788 -3.0673,-1.6788 -0.1327,0 -0.2399,0.42495 -0.2381,0.94433 0,0.66011 0.5075,1.2323 1.6788,1.90118 0.9215,0.52627 1.6741,1.09286 1.6723,1.2591 0,0.16623 -0.7572,0.73282 -1.6788,1.25909 -1.2701,0.72534 -1.6756,1.21736 -1.6756,2.03346 l 0,1.07659 1.9936,-1.15433 c 1.0965,-0.63488 2.3661,-1.40829 2.8214,-1.71868 z m -24.39923,-22.7754 c 6.46653,-3.13039 9.40443,-10.98968 6.47936,-17.33318 -1.02088,-2.21395 -4.77471,-6.5104 -5.26222,-6.02289 -0.11611,0.11611 -1.03593,2.04235 -2.04404,4.28052 -1.54325,3.42628 -1.83292,4.4898 -1.83292,6.72943 0,2.95442 0.32347,3.21408 1.96233,1.57522 0.99945,-0.99945 1.06778,-1.29657 0.86865,-3.77729 -0.11887,-1.48089 -0.0726,-2.69252 0.10278,-2.69252 0.1754,0 0.88415,-0.11304 1.57499,-0.25121 1.12921,-0.22585 1.30408,-0.11354 1.73126,1.11187 1.57895,4.52938 -1.05907,10.37937 -5.03951,11.17545 -0.91649,0.1833 -1.2005,0.47592 -1.2005,1.23689 0,0.78344 -0.22458,0.99679 -1.04925,0.99679 -0.76945,0 -1.04925,-0.22384 -1.04925,-0.8394 0,-0.46167 -0.16684,-0.8394 -0.37075,-0.8394 -0.20391,0 -0.46953,0.37773 -0.59026,0.8394 -0.14285,0.54629 -0.57247,0.8394 -1.23031,0.8394 -0.74383,0 -1.19762,0.39174 -1.71809,1.48319 -0.38901,0.81575 -0.70729,1.65251 -0.70729,1.85946 0,1.1714 6.73935,0.90418 9.37502,-0.37173 z m -11.62254,-3.61541 1.06364,-2.32329 -1.09524,-0.86151 c -2.21508,-1.74238 -3.32541,-5.28858 -2.70151,-8.62815 0.2007,-1.07426 0.44005,-2.02836 0.5319,-2.12021 0.0919,-0.0919 0.92549,0.0372 1.85252,0.28686 1.68485,0.45368 1.68536,0.45445 1.27415,1.9437 -0.51238,1.85569 -0.14677,3.63319 0.95178,4.62736 1.17661,1.06483 1.61479,0.23876 1.62296,-3.05966 0.006,-2.50091 0.0474,-2.60007 1.13268,-2.72805 0.98279,-0.11588 1.35076,-0.64069 2.88873,-4.11995 1.73719,-3.92995 1.74963,-3.9922 0.86731,-4.33966 -1.52068,-0.59884 -5.62991,-8.4e-4 -8.01622,1.16677 -2.49094,1.2187 -4.72552,3.4582 -6.18321,6.19681 -1.38852,2.60867 -1.38852,8.55118 0,11.15986 1.0502,1.97305 3.72638,5.12241 4.35279,5.12241 0.21675,0 0.87272,-1.04548 1.45772,-2.32329 z m 40.44017,0.24318 c 0,-0.72805 -0.3445,-0.83498 -3.0428,-0.94433 l -3.0428,-0.12331 3.0392,-1.88865 c 2.3072,-1.43375 3.0401,-2.11609 3.0428,-2.83297 0,-0.92229 -0.1041,-0.94432 -4.6131,-0.94432 -4.3024,0 -4.6167,0.0559 -4.6167,0.82101 0,0.72805 0.3446,0.83497 3.0428,0.94432 l 3.0429,0.12331 -3.0393,1.88865 c -2.3072,1.43375 -3.0401,2.1161 -3.0428,2.83297 0,0.92229 0.1042,0.94433 4.6131,0.94433 4.3025,0 4.6167,-0.0559 4.6167,-0.82101 z m -0.969,-9.85084 c 1.4483,-1.68373 1.3761,-4.89562 -0.1368,-6.08567 -0.6082,-0.47843 -1.3637,-0.86987 -1.6788,-0.86987 -0.9614,0 -0.6383,1.53943 0.4763,2.26976 1.1914,0.78065 1.3303,1.75892 0.4318,3.04172 -1.2257,1.74992 -5.2514,1.31063 -5.8707,-0.64061 -0.293,-0.92301 0.3782,-2.57237 1.0468,-2.57237 0.2227,0 0.4049,-0.47216 0.4049,-1.04925 0,-1.32558 -0.5952,-1.33154 -1.9077,-0.0191 -1.1175,1.11752 -1.4172,3.75786 -0.5999,5.28504 1.2501,2.3358 6.039,2.72722 7.8341,0.64032 z m -27.78041,-23.5343 c 2.3328,-1.13182 5.54787,-4.45496 6.604,-6.82597 1.21964,-2.73809 1.22474,-7.5202 0.0109,-10.24496 -1.18803,-2.6669 -3.93116,-5.53991 -6.52234,-6.83115 -3.01499,-1.50243 -7.92253,-1.51922 -11.10405,-0.038 -7.9169,3.6859 -10.19337,13.97158 -4.495,20.30955 1.98243,2.20493 4.00812,3.65946 5.96419,4.28251 2.0011,0.63739 7.68522,0.24902 9.54227,-0.65198 z m -8.18414,-3.98992 c 0,-0.2327 -0.75616,-0.72565 -1.68036,-1.09544 -6.00411,-2.40237 -5.9269,-11.45854 0.12266,-14.38708 2.33511,-1.1304 6.13997,-1.17037 8.48275,-0.0891 6.78795,3.13284 6.29229,13.22967 -0.73448,14.96182 l -1.15417,0.28451 0,-2.35385 c 0,-2.05115 0.10488,-2.35384 0.8156,-2.35384 1.0917,0 2.12229,-1.55579 2.12229,-3.20383 0,-0.97913 -0.34652,-1.62983 -1.2913,-2.42481 -1.09334,-0.91999 -1.70099,-1.08656 -3.96374,-1.08656 -3.39834,0 -4.98563,1.12144 -4.98563,3.52239 0,1.87029 1.60415,3.83812 2.26304,2.7761 0.31979,-0.51544 0.68966,-0.3327 2.08571,1.0305 l 1.69698,1.65706 -1.55515,1.59262 c -1.56608,1.60382 -2.2242,1.94986 -2.2242,1.16952 z m 31.20345,1.28691 c 0.7829,-0.29765 1.2039,-0.96025 1.7046,-2.68257 0.3657,-1.258 0.9259,-2.38742 1.2448,-2.50981 1.5332,-0.58831 2.1526,2.66832 0.6822,3.58657 -1.0899,0.68065 -1.1056,2.0011 -0.024,2.0011 1.2355,0 2.1223,-1.61735 2.1223,-3.87068 0,-2.28077 -1.0195,-3.68391 -2.6766,-3.68391 -1.2631,0 -1.9853,0.85899 -2.7795,3.30633 -0.4706,1.45026 -0.8414,1.93991 -1.4689,1.93991 -1.0658,0 -1.38,-1.93111 -0.4409,-2.71043 0.8199,-0.68051 0.8505,-2.11611 0.045,-2.11611 -0.9932,0 -1.9125,1.74496 -1.9125,3.63037 0,1.40665 0.2244,1.94133 1.1059,2.63466 1.29,1.01475 1.0839,0.97395 2.3974,0.47457 z m 5.7301,-8.58275 c 0,-0.72064 -0.2959,-1.07803 -1.0492,-1.2671 -0.9231,-0.23168 -1.0493,-0.48852 -1.0493,-2.136 0,-1.64747 0.1262,-1.90432 1.0493,-2.136 0.7533,-0.18907 1.0492,-0.54645 1.0492,-1.26709 0,-0.55207 -0.069,-1.00375 -0.1525,-1.00375 -0.084,0 -2.1142,0.73529 -4.5118,1.63398 -3.7861,1.41917 -4.3759,1.77017 -4.4864,2.66989 -0.1178,0.95906 0.2091,1.16317 4.4068,2.75161 2.4938,0.94363 4.5813,1.72526 4.639,1.73695 0.058,0.0117 0.1049,-0.43043 0.1049,-0.98249 z m -5.6245,-2.86284 -1.2178,-0.44272 1.0079,-0.55852 c 1.617,-0.89606 2.4768,-0.73602 2.4768,0.46098 0,1.13326 -0.3841,1.2248 -2.2669,0.54026 z"
         id="path3004"
         inkscape:connector-curvature="0" />
      <path
         style="fill:#060606"
         d="m 966.16874,458.69589 -0.67057,-1.38977 0,-82.50914 0,-82.50913 0.67057,-1.29987 1.38977,-0.76047 28.55865,0 28.55864,0 0,84.56947 0,84.56948 -28.55864,0 -28.55865,0 z m 40.87966,-3.89693 0,-2.8887 2.7578,-2.02465 c 4.3808,-3.21627 7.8927,-8.4075 9.2778,-13.714 0.9051,-3.4678 0.8804,-9.46808 -0.052,-12.67596 -1.6258,-5.59236 -4.9258,-10.41409 -9.2972,-13.58435 l -2.6863,-1.94819 0,-58.03251 0,-58.03251 -19.83078,0.10903 -19.8308,0.10904 -0.10765,82.26113 c -0.0592,45.24362 -0.0179,82.4972 0.0917,82.78575 0.15562,0.40943 4.53336,0.52462 19.93846,0.52462 l 19.73897,0 z m -17.04515,-2.97846 c -5.25083,-0.78944 -9.77151,-3.2386 -13.47688,-7.30133 -7.70455,-8.44762 -7.38293,-21.82204 0.72339,-30.08158 8.66937,-8.83324 22.83424,-8.85978 31.44544,-0.0589 4.4299,4.52752 6.3136,9.18642 6.3225,15.63756 0.01,6.30733 -1.8556,10.73701 -6.4546,15.33601 -1.641,1.64099 -3.936,3.46577 -5.1,4.05506 -4.13111,2.09133 -9.36233,3.02923 -13.45985,2.41318 z m 10.20355,-5.44214 c 5.5234,-2.58473 9.712,-8.03928 10.651,-13.87034 1.3908,-8.63594 -4.2993,-17.51121 -12.79166,-19.95224 -3.85215,-1.10724 -8.9479,-0.72761 -12.42965,0.92601 -7.22249,3.43024 -10.76733,9.40696 -10.41104,17.55336 0.14465,3.30732 0.36428,4.26092 1.52379,6.61623 1.47996,3.00622 5.20719,6.83179 8.08816,8.30155 4.80702,2.45236 10.68994,2.6152 15.3694,0.42543 z m -9.67137,-4.38994 c -2.23153,-0.82627 -3.45246,-2.09413 -4.04105,-4.19638 -0.58896,-2.10358 -0.0936,-4.53493 1.27975,-6.28081 1.12923,-1.43559 1.84393,-1.3958 2.47926,0.13802 0.451,1.08881 0.4055,1.38061 -0.36878,2.36495 -1.14072,1.45019 -1.11313,2.07707 0.14691,3.3371 0.81096,0.81096 1.46394,1.03018 3.06861,1.03018 3.4392,0 4.92745,-2.32677 3.03064,-4.73818 -0.71555,-0.90966 -0.76948,-1.23957 -0.35234,-2.1551 0.60557,-1.32908 1.20559,-1.3639 2.35519,-0.13669 1.84298,1.9674 2.23708,4.6113 1.10802,7.43312 -1.19116,2.977 -5.26751,4.47705 -8.70621,3.20379 z m -1.00119,-13.04288 c -3.64542,-1.58476 -4.44378,-7.55712 -1.40003,-10.47322 l 1.24475,-1.19255 0.70323,1.47468 c 0.67881,1.42348 0.67226,1.50565 -0.18881,2.36671 -1.95894,1.95894 -0.20626,4.66933 3.01944,4.66933 3.40831,0 5.34778,-2.90403 3.22342,-4.82655 -1.03642,-0.93794 -1.05471,-1.52975 -0.0844,-2.7281 l 0.75505,-0.93244 1.32275,1.50652 c 2.86786,3.26632 2.08856,8.23444 -1.58997,10.1367 -1.50405,0.77778 -5.21521,0.77721 -7.00548,-10e-4 z m -8.41396,-27.04638 c -4.38682,-1.61725 -7.53555,-4.60475 -9.6608,-9.16612 -0.96243,-2.06563 -1.11848,-2.94311 -1.09981,-6.18447 0.0291,-5.04734 1.08134,-7.74748 4.4031,-11.29845 3.57361,-3.8202 6.42537,-5.04777 11.72038,-5.04514 5.01481,0.003 7.82201,1.01944 11.11052,4.02495 5.20243,4.75478 6.87263,12.82589 3.94363,19.05722 -1.4297,3.04141 -4.65874,6.27038 -7.83614,7.83587 -2.43519,1.19979 -3.26971,1.38801 -6.57741,1.48345 -2.91873,0.0842 -4.29683,-0.0781 -6.00347,-0.70731 z m 10.20728,-3.01218 c 3.22608,-1.20703 6.5079,-4.51088 7.74105,-7.79303 2.42269,-6.44812 -0.62753,-13.89784 -6.91952,-16.90009 -2.86763,-1.36831 -7.92927,-1.44475 -10.75371,-0.16241 -5.70316,2.58934 -9.04904,8.71599 -7.96437,14.58355 0.52129,2.81989 1.3029,4.39425 3.2535,6.55332 3.88172,4.2966 9.3719,5.69085 14.64305,3.71866 z m -9.41344,-8.50368 c -0.32792,-0.39511 -0.45911,-1.88827 -0.37939,-4.31785 l 0.12187,-3.71387 3.88223,-0.12068 c 3.66573,-0.11394 3.88222,-0.073 3.88222,0.73448 0,0.79705 0.25661,0.85515 3.77729,0.85515 l 3.7773,0 0,2.51819 0,2.5182 -3.74811,0 c -3.56738,0 -3.75457,0.0455 -3.88222,0.94433 -0.12478,0.87862 -0.37053,0.95273 -3.53202,1.06517 -2.55861,0.091 -3.52173,-0.0283 -3.89917,-0.48312 z m -5.08406,-2.36578 c -1.04554,-1.04553 -1.07193,-2.17766 -0.0719,-3.08269 1.54511,-1.39831 3.84918,-0.42864 3.84918,1.61992 0,0.98932 -1.36963,2.30217 -2.40174,2.30217 -0.29489,0 -0.91389,-0.37773 -1.37556,-0.8394 z m 6.46635,-22.25692 c -4.86148,-0.96385 -10.1711,-5.34748 -11.93082,-9.8501 -1.38885,-3.55369 -1.38885,-9.0373 0,-12.59099 1.17572,-3.00832 5.05061,-7.11131 8.01618,-8.48805 10.07133,-4.67554 21.74383,1.44109 23.40633,12.26535 1.7279,11.25019 -8.32644,20.87744 -19.49169,18.66379 z m 9.1566,-4.02295 c 2.09233,-1.08198 4.94972,-3.98589 6.1302,-6.23 0.96345,-1.83152 1.11327,-2.62215 1.11661,-5.89264 0.003,-3.39596 -0.12027,-4.00137 -1.22578,-5.99684 -1.13629,-2.05102 -4.39521,-5.5449 -5.17201,-5.5449 -0.18412,0 -1.13413,1.84143 -2.11113,4.09207 -1.54978,3.57012 -1.77595,4.47905 -1.77311,7.12589 l 0.003,3.03383 1.02902,-0.46886 c 1.09614,-0.49943 2.32857,-2.6488 2.32857,-4.06102 0,-0.46947 -0.18274,-1.33422 -0.40609,-1.92167 -0.37139,-0.97684 -0.2907,-1.09999 0.94433,-1.44132 1.66274,-0.45954 2.25189,0.13353 2.62869,2.64621 0.54812,3.65515 -1.89057,7.9974 -5.08326,9.05109 -0.97713,0.32248 -1.44126,0.73549 -1.44126,1.28251 0,0.58084 -0.29391,0.80685 -1.04925,0.80685 -0.65287,0 -1.04925,-0.23783 -1.04925,-0.62955 0,-0.34625 -0.2833,-0.62955 -0.62955,-0.62955 -0.34625,0 -0.62955,0.2833 -0.62955,0.62955 0,0.3827 -0.39044,0.62955 -0.99574,0.62955 -0.78674,0 -1.17656,0.41771 -1.85719,1.99006 -0.47379,1.09453 -0.77323,2.07827 -0.66541,2.18609 0.10781,0.10781 1.08519,0.30204 2.17196,0.43162 2.43569,0.29041 6.05328,-0.21883 7.73594,-1.08897 z m -11.58975,-4.21053 0.69267,-1.81373 -1.47288,-1.63031 c -1.84509,-2.0423 -2.56785,-4.184 -2.31167,-6.85005 0.24229,-2.52155 0.68931,-3.03372 2.33281,-2.67275 1.25195,0.27497 1.25746,0.28903 1.04488,2.66558 -0.1942,2.17105 -0.1092,2.50139 0.9312,3.6187 l 1.14492,1.22955 0.56486,-1.0197 c 0.31067,-0.56084 0.57155,-2.10568 0.57973,-3.43298 0.0139,-2.25706 0.0795,-2.41327 1.01276,-2.41327 0.86071,0 1.23573,-0.55224 2.72805,-4.01726 0.95158,-2.2095 1.73016,-4.21568 1.73016,-4.45819 0,-0.84729 -7.14318,-0.17319 -9.14588,0.86309 -8.16716,4.22606 -9.88752,15.02003 -3.42408,21.48348 1.66664,1.66664 1.82257,1.73477 2.34264,1.02353 0.30644,-0.41907 0.86886,-1.57813 1.24983,-2.57569 z m 1.21304,-28.82751 c -2.78053,-0.92429 -4.45268,-1.95406 -6.84143,-4.21325 -9.12442,-8.62949 -5.33441,-23.85997 6.80577,-27.3496 7.75682,-2.22965 16.01355,1.55884 19.46946,8.9333 1.0037,2.14172 1.1315,2.91206 1.1315,6.82123 0,3.91201 -0.1274,4.67869 -1.1345,6.82778 -1.4636,3.12335 -4.8994,6.54197 -8.09108,8.05064 -2.99786,1.41705 -8.51352,1.86936 -11.33972,0.9299 z m 10.03983,-3.66561 c 2.49689,-1.17367 5.34046,-4.00234 6.56377,-6.52937 1.4017,-2.8956 1.5764,-7.23297 0.41517,-10.30905 -1.12956,-2.99215 -4.13635,-6.26324 -6.94598,-7.55654 -3.11611,-1.43438 -8.40812,-1.35583 -11.34873,0.16844 -2.58588,1.3404 -5.42567,4.34185 -6.59808,6.97369 -1.20356,2.70176 -1.20823,7.50807 -0.01,10.19789 1.58965,3.56818 4.8916,6.53262 8.64952,7.7654 2.40932,0.79037 6.7963,0.45431 9.27422,-0.71046 z m -7.73148,-4.24699 c 0,-0.43123 -0.4807,-0.79971 -1.26915,-0.97288 -0.69803,-0.15332 -1.8569,-0.77332 -2.57527,-1.37778 -3.30673,-2.78243 -3.30983,-8.00606 -0.007,-11.53565 1.09884,-1.17422 4.35009,-2.40538 6.34071,-2.40106 5.0806,0.011 9.44009,4.8712 8.63639,9.62826 -0.51639,3.05647 -3.19305,5.89277 -5.56482,5.89671 -0.83576,10e-4 -0.94432,-0.2097 -0.94432,-1.83616 0,-1.64414 0.13196,-1.89239 1.2527,-2.35661 1.57464,-0.65224 2.353,-2.93238 1.56669,-4.58953 -1.05606,-2.22567 -5.06488,-3.19931 -8.04534,-1.954 -2.15956,0.90233 -2.9912,3.25956 -1.88151,5.33304 0.50726,0.94782 2.16152,1.70853 2.51468,1.15637 0.12858,-0.20102 0.87733,0.29848 1.66389,1.11001 l 1.43011,1.4755 -1.55896,1.55895 c -1.1016,1.1016 -1.55896,1.35532 -1.55896,0.86483 z m 36.51385,71.56548 c 0,-2.40692 -0.1753,-3.41336 -0.6946,-3.98714 -0.8624,-0.95292 -2.7951,-0.99513 -3.7092,-0.081 -0.5124,0.51237 -0.8075,0.5656 -1.1632,0.20985 -0.6824,-0.68239 -2.2361,-0.5879 -3.0068,0.18287 -0.4812,0.4812 -0.6596,1.50256 -0.6596,3.7773 l 0,3.11777 4.6167,0 4.6167,0 0,-3.21963 z m -7.5546,-0.30292 c 0,-1.50513 0.8178,-2.20704 1.6277,-1.39711 0.2589,0.25896 0.4708,0.99966 0.4708,1.646 0,0.9737 -0.1798,1.17516 -1.0492,1.17516 -0.9131,0 -1.0493,-0.18487 -1.0493,-1.42405 z m 3.7773,-0.20985 c 0,-0.92442 0.2278,-1.71767 0.5246,-1.82682 1.0633,-0.391 1.5739,0.19848 1.5739,1.81689 0,1.47362 -0.1086,1.64383 -1.0492,1.64383 -0.9395,0 -1.0493,-0.17087 -1.0493,-1.6339 z m -2.1474,-6.34039 c 1.9275,-1.14516 3.3183,-1.6788 4.3753,-1.6788 1.3729,0 1.5494,-0.11953 1.5494,-1.04925 0,-0.95567 -0.1601,-1.04925 -1.7952,-1.04925 -0.9874,0 -2.1678,-0.25396 -2.6232,-0.56435 -0.4553,-0.31039 -1.7249,-1.08379 -2.8214,-1.71867 l -1.9936,-1.15434 0,1.27519 c 0,1.04589 0.3089,1.45939 1.7177,2.29951 l 1.7177,1.02432 -1.7177,0.9654 c -1.3752,0.77292 -1.7177,1.20103 -1.7177,2.14722 0,0.65 0.1087,1.18181 0.2414,1.18181 0.1328,0 1.513,-0.75546 3.0673,-1.67879 z m 5.9247,-27.26045 c 0,-1.22534 -0.029,-1.24046 -2.5969,-1.36403 l -2.597,-0.12495 2.597,-1.59959 c 2.2308,-1.37406 2.5969,-1.77349 2.5969,-2.83297 l 0,-1.23338 -4.6167,0 -4.6167,0 0,1.03007 c 0,0.97964 0.1387,1.03615 2.833,1.15417 l 2.833,0.1241 -2.833,1.82135 c -2.4313,1.56314 -2.833,1.99451 -2.833,3.04282 l 0,1.22148 4.6167,0 4.6167,0 z m -1.4131,-9.15783 c 1.8506,-1.49911 2.3298,-3.79285 1.2347,-5.91052 -0.5427,-1.04956 -2.1868,-2.15937 -3.1989,-2.15937 -0.8589,0 -0.371,2.02092 0.6493,2.68946 1.323,0.86687 1.379,2.48807 0.1164,3.37239 -2.8391,1.9886 -6.6045,-1.07046 -4.1036,-3.3338 0.9989,-0.90399 1.1098,-2.30835 0.1823,-2.30835 -3.1743,0 -4.1305,5.01756 -1.3949,7.31945 1.5778,1.32761 5.0654,1.50467 6.5147,0.33074 z m 0.1904,-26.65494 c 1.5787,-1.21211 2.1351,-4.03734 1.1599,-5.89004 -0.6516,-1.23798 -1.1712,-1.53228 -2.7188,-1.53986 -1.6082,-0.008 -2.0869,0.53505 -2.9072,3.2972 -0.6853,2.30786 -1.1548,2.64158 -1.8606,1.32269 -0.3527,-0.65906 -0.2694,-1.00446 0.4049,-1.6788 1.0454,-1.04544 1.1866,-3.16686 0.1851,-2.78257 -0.3651,0.14012 -0.8324,0.25476 -1.0384,0.25476 -0.2061,0 -0.6827,0.59583 -1.0593,1.32406 -1.2954,2.50498 0.037,5.81083 2.3419,5.81083 1.4317,0 2.3116,-0.98643 2.9209,-3.27428 0.5049,-1.8961 1.5237,-2.70979 2.1514,-1.71835 0.5763,0.91 0.456,1.5628 -0.4556,2.47443 -0.9258,0.92579 -1.1432,2.94563 -0.3148,2.92455 0.2886,-0.007 0.8243,-0.24342 1.1906,-0.52462 z m 1.2227,-8.94456 c 0,-0.73557 -0.2722,-1.15972 -0.8394,-1.30805 -0.6739,-0.17624 -0.8394,-0.57248 -0.8394,-2.01026 0,-1.43778 0.1655,-1.83401 0.8394,-2.01025 0.6023,-0.15751 0.8394,-0.57248 0.8394,-1.46914 l 0,-1.24963 -4.6348,1.73496 c -4.5563,1.70557 -4.6327,1.75606 -4.5118,2.98013 0.1143,1.15658 0.4068,1.3552 4.1102,2.79171 4.866,1.88744 5.0364,1.90573 5.0364,0.54053 z m -5.2413,-2.84164 -1.2541,-0.53471 1.3591,-0.47377 c 1.2911,-0.45011 1.359,-0.42246 1.359,0.55365 0,0.56507 -0.047,1.01889 -0.1049,1.00848 -0.058,-0.0104 -0.6693,-0.25955 -1.3591,-0.55365 z"
         id="path3002"
         inkscape:connector-curvature="0"
         sodipodi:nodetypes="ccccccccccccccccccscccccscsccsssscscsscsssssssscssssssssscscssssccsscccssscscsscssssssscscssscccsssccsssccsssssscscsssccsssssssssssssssccscssssscssssssscsssssscsscssssscsccccscsscssssscscsccsccccsccccsscsssscssscssscccsscssscsscsscccssccscccsccssccsccccccsscscscccccssssscscsscccscc" />
    </g>
  </g>
</svg>
