<?xml version="1.0" encoding="UTF-8" standalone="no"?>
<!-- Created with Inkscape (http://www.inkscape.org/) -->

<svg
   xmlns:dc="http://purl.org/dc/elements/1.1/"
   xmlns:cc="http://creativecommons.org/ns#"
   xmlns:rdf="http://www.w3.org/1999/02/22-rdf-syntax-ns#"
   xmlns:svg="http://www.w3.org/2000/svg"
   xmlns="http://www.w3.org/2000/svg"
   xmlns:sodipodi="http://sodipodi.sourceforge.net/DTD/sodipodi-0.dtd"
   xmlns:inkscape="http://www.inkscape.org/namespaces/inkscape"
   width="610.07117"
   height="430.25394"
   id="svg2"
   inkscape:label="Pozadí"
   version="1.1"
   inkscape:version="0.48.1 r9760"
   sodipodi:docname="lego.svg"
   style="display:inline">
  <defs
     id="defs3" />
  <sodipodi:namedview
     id="base"
     pagecolor="#ffffff"
     bordercolor="#666666"
     borderopacity="1.0"
     inkscape:pageopacity="0.0"
     inkscape:pageshadow="2"
     inkscape:zoom="0.98994949"
     inkscape:cx="280.43509"
     inkscape:cy="158.37978"
     inkscape:document-units="px"
     inkscape:current-layer="layer2"
     showgrid="false"
     inkscape:window-width="1680"
     inkscape:window-height="1010"
     inkscape:window-x="0"
     inkscape:window-y="22"
     inkscape:window-maximized="1"
     fit-margin-top="0"
     fit-margin-left="0"
     fit-margin-right="0"
     fit-margin-bottom="0" />
  <metadata
     id="metadata6">
    <rdf:RDF>
      <cc:Work
         rdf:about="">
        <dc:format>image/svg+xml</dc:format>
        <dc:type
           rdf:resource="http://purl.org/dc/dcmitype/StillImage" />
      </cc:Work>
    </rdf:RDF>
  </metadata>
  <g
     inkscape:groupmode="layer"
     id="layer2"
     inkscape:label="Layer"
     style="display:inline"
     transform="translate(-71.741767,-99.310046)">
    <g
       id="g11307">
      <g
         id="g11216">
        <path
           style="fill:#ef2929;fill-opacity:1;stroke:#a40000;stroke-width:6;stroke-linecap:butt;stroke-linejoin:round;stroke-miterlimit:4;stroke-opacity:1;stroke-dasharray:none"
           d="M 74.751288,290.70716 590.43416,423.54222 592.45447,526.57778 82.832509,395.25795 z"
           id="path10266"
           inkscape:connector-curvature="0" />
        <path
           inkscape:connector-curvature="0"
           id="path11036"
           d="m 677.81236,228.58278 -87.3782,194.95944 2.02031,103.03556 86.36804,-189.4036 z"
           style="fill:#ef2929;fill-opacity:1;stroke:#a40000;stroke-width:6;stroke-linecap:butt;stroke-linejoin:round;stroke-miterlimit:4;stroke-opacity:1;stroke-dasharray:none"
           sodipodi:nodetypes="ccccc" />
        <path
           sodipodi:nodetypes="ccccc"
           style="fill:#ef2929;fill-opacity:1;stroke:#a40000;stroke-width:6;stroke-linecap:butt;stroke-linejoin:round;stroke-miterlimit:4;stroke-opacity:1;stroke-dasharray:none"
           d="M 677.81236,228.58278 590.43416,423.54222 74.75129,290.70716 171.72593,102.31371 z"
           id="path11038"
           inkscape:connector-curvature="0" />
        <path
           inkscape:connector-curvature="0"
           id="path11040"
           d="M 89.751288,307.9393 579.63059,432.82793 579.7759,511.39921 95.243223,385.43652 z"
           style="fill:#cc0000;fill-opacity:1;stroke:#cc0000;stroke-width:6;stroke-linecap:butt;stroke-linejoin:round;stroke-miterlimit:4;stroke-opacity:1;stroke-dasharray:none"
           sodipodi:nodetypes="ccccc" />
        <path
           sodipodi:nodetypes="ccccc"
           style="fill:#cc0000;fill-opacity:1;stroke:#cc0000;stroke-width:6;stroke-linecap:butt;stroke-linejoin:round;stroke-miterlimit:4;stroke-opacity:1;stroke-dasharray:none"
           d="M 177.787,114.90358 662.13059,236.04221 583.5259,408.36349 92.386077,283.29366 z"
           id="path11042"
           inkscape:connector-curvature="0" />
        <path
           sodipodi:nodetypes="ccccc"
           style="fill:#cc0000;fill-opacity:1;stroke:#cc0000;stroke-width:6;stroke-linecap:butt;stroke-linejoin:round;stroke-miterlimit:4;stroke-opacity:1;stroke-dasharray:none"
           d="m 667.60844,277.9393 0.59358,55.60291 -65.92612,145.71414 -0.60411,-51.67698 z"
           id="path11044"
           inkscape:connector-curvature="0" />
      </g>
      <g
         id="g11224"
         style="display:inline">
        <g
           id="g11140">
          <path
             sodipodi:nodetypes="sssccs"
             inkscape:connector-curvature="0"
             id="path11049"
             d="m 589.9291,346.26556 c 0,15.06308 -16.50752,27.27412 -36.87057,27.27412 -20.36305,0 -36.87056,-12.21104 -36.87056,-27.27412 0,-7.53154 -1.23027,-24.35007 5.44199,-29.28571 17.42594,0.81561 52.07396,-5.55595 65,2.85714 6.67226,4.93565 3.29914,18.89703 3.29914,26.42857 z"
             style="fill:#ef2929;fill-opacity:1;fill-rule:nonzero;stroke:#a40000;stroke-width:6;stroke-linejoin:round;stroke-miterlimit:4;stroke-opacity:1"
             transform="translate(-5.1120388,13.704494)" />
          <path
             inkscape:connector-curvature="0"
             id="path11054"
             d="m 521.4375,366.34375 c 4.17733,7.03391 14.40626,12 26.375,12 10.7601,0 20.12108,-4.01514 24.9375,-9.9375 -5.88315,3.70391 -14.56511,6.0625 -24.25,6.0625 -11.38536,0 -21.36723,-3.24435 -27.0625,-8.125 z"
             style="fill:#cc0000;fill-opacity:1;fill-rule:nonzero;stroke:#cc0000;stroke-width:4.40143442;stroke-linejoin:round;stroke-miterlimit:4;stroke-opacity:1" />
          <path
             transform="translate(-4.0406102,-8.0812203)"
             d="m 589.9291,346.26556 c 0,15.06308 -16.50752,27.27412 -36.87057,27.27412 -20.36305,0 -36.87056,-12.21104 -36.87056,-27.27412 0,-15.06308 16.50751,-27.27411 36.87056,-27.27411 20.36305,0 36.87057,12.21103 36.87057,27.27411 z"
             sodipodi:ry="27.274118"
             sodipodi:rx="36.870567"
             sodipodi:cy="346.26556"
             sodipodi:cx="553.05853"
             id="path11047"
             style="fill:#ef2929;fill-opacity:1;fill-rule:nonzero;stroke:#a40000;stroke-width:6;stroke-linejoin:round;stroke-miterlimit:4;stroke-opacity:1;stroke-dasharray:none"
             sodipodi:type="arc" />
          <path
             sodipodi:type="arc"
             style="fill:#cc0000;fill-opacity:1;fill-rule:nonzero;stroke:#cc0000;stroke-width:6;stroke-linejoin:round;stroke-miterlimit:4;stroke-opacity:1;stroke-dasharray:none"
             id="path11052"
             sodipodi:cx="553.05853"
             sodipodi:cy="346.26556"
             sodipodi:rx="36.870567"
             sodipodi:ry="27.274118"
             d="m 589.9291,346.26556 c 0,15.06308 -16.50752,27.27412 -36.87057,27.27412 -20.36305,0 -36.87056,-12.21104 -36.87056,-27.27412 0,-15.06308 16.50751,-27.27411 36.87056,-27.27411 20.36305,0 36.87057,12.21103 36.87057,27.27411 z"
             transform="matrix(0.73966749,0,0,0.64226903,139.93851,115.74365)" />
        </g>
        <g
           id="g11146"
           transform="translate(-132.14286,-34.285714)">
          <path
             transform="translate(-5.1120388,13.704494)"
             style="fill:#ef2929;fill-opacity:1;fill-rule:nonzero;stroke:#a40000;stroke-width:6;stroke-linejoin:round;stroke-miterlimit:4;stroke-opacity:1"
             d="m 589.9291,346.26556 c 0,15.06308 -16.50752,27.27412 -36.87057,27.27412 -20.36305,0 -36.87056,-12.21104 -36.87056,-27.27412 0,-7.53154 -1.23027,-24.35007 5.44199,-29.28571 17.42594,0.81561 52.07396,-5.55595 65,2.85714 6.67226,4.93565 3.29914,18.89703 3.29914,26.42857 z"
             id="path11148"
             inkscape:connector-curvature="0"
             sodipodi:nodetypes="sssccs" />
          <path
             style="fill:#cc0000;fill-opacity:1;fill-rule:nonzero;stroke:#cc0000;stroke-width:4.40143442;stroke-linejoin:round;stroke-miterlimit:4;stroke-opacity:1"
             d="m 521.4375,366.34375 c 4.17733,7.03391 14.40626,12 26.375,12 10.7601,0 20.12108,-4.01514 24.9375,-9.9375 -5.88315,3.70391 -14.56511,6.0625 -24.25,6.0625 -11.38536,0 -21.36723,-3.24435 -27.0625,-8.125 z"
             id="path11150"
             inkscape:connector-curvature="0" />
          <path
             sodipodi:type="arc"
             style="fill:#ef2929;fill-opacity:1;fill-rule:nonzero;stroke:#a40000;stroke-width:6;stroke-linejoin:round;stroke-miterlimit:4;stroke-opacity:1;stroke-dasharray:none"
             id="path11152"
             sodipodi:cx="553.05853"
             sodipodi:cy="346.26556"
             sodipodi:rx="36.870567"
             sodipodi:ry="27.274118"
             d="m 589.9291,346.26556 c 0,15.06308 -16.50752,27.27412 -36.87057,27.27412 -20.36305,0 -36.87056,-12.21104 -36.87056,-27.27412 0,-15.06308 16.50751,-27.27411 36.87056,-27.27411 20.36305,0 36.87057,12.21103 36.87057,27.27411 z"
             transform="translate(-4.0406102,-8.0812203)" />
          <path
             transform="matrix(0.73966749,0,0,0.64226903,139.93851,115.74365)"
             d="m 589.9291,346.26556 c 0,15.06308 -16.50752,27.27412 -36.87057,27.27412 -20.36305,0 -36.87056,-12.21104 -36.87056,-27.27412 0,-15.06308 16.50751,-27.27411 36.87056,-27.27411 20.36305,0 36.87057,12.21103 36.87057,27.27411 z"
             sodipodi:ry="27.274118"
             sodipodi:rx="36.870567"
             sodipodi:cy="346.26556"
             sodipodi:cx="553.05853"
             id="path11154"
             style="fill:#cc0000;fill-opacity:1;fill-rule:nonzero;stroke:#cc0000;stroke-width:6;stroke-linejoin:round;stroke-miterlimit:4;stroke-opacity:1;stroke-dasharray:none"
             sodipodi:type="arc" />
        </g>
        <g
           transform="translate(-262.14286,-69.285714)"
           id="g11156">
          <path
             sodipodi:nodetypes="sssccs"
             inkscape:connector-curvature="0"
             id="path11158"
             d="m 589.9291,346.26556 c 0,15.06308 -16.50752,27.27412 -36.87057,27.27412 -20.36305,0 -36.87056,-12.21104 -36.87056,-27.27412 0,-7.53154 -1.23027,-24.35007 5.44199,-29.28571 17.42594,0.81561 52.07396,-5.55595 65,2.85714 6.67226,4.93565 3.29914,18.89703 3.29914,26.42857 z"
             style="fill:#ef2929;fill-opacity:1;fill-rule:nonzero;stroke:#a40000;stroke-width:6;stroke-linejoin:round;stroke-miterlimit:4;stroke-opacity:1"
             transform="translate(-5.1120388,13.704494)" />
          <path
             inkscape:connector-curvature="0"
             id="path11160"
             d="m 521.4375,366.34375 c 4.17733,7.03391 14.40626,12 26.375,12 10.7601,0 20.12108,-4.01514 24.9375,-9.9375 -5.88315,3.70391 -14.56511,6.0625 -24.25,6.0625 -11.38536,0 -21.36723,-3.24435 -27.0625,-8.125 z"
             style="fill:#cc0000;fill-opacity:1;fill-rule:nonzero;stroke:#cc0000;stroke-width:4.40143442;stroke-linejoin:round;stroke-miterlimit:4;stroke-opacity:1" />
          <path
             transform="translate(-4.0406102,-8.0812203)"
             d="m 589.9291,346.26556 c 0,15.06308 -16.50752,27.27412 -36.87057,27.27412 -20.36305,0 -36.87056,-12.21104 -36.87056,-27.27412 0,-15.06308 16.50751,-27.27411 36.87056,-27.27411 20.36305,0 36.87057,12.21103 36.87057,27.27411 z"
             sodipodi:ry="27.274118"
             sodipodi:rx="36.870567"
             sodipodi:cy="346.26556"
             sodipodi:cx="553.05853"
             id="path11162"
             style="fill:#ef2929;fill-opacity:1;fill-rule:nonzero;stroke:#a40000;stroke-width:6;stroke-linejoin:round;stroke-miterlimit:4;stroke-opacity:1;stroke-dasharray:none"
             sodipodi:type="arc" />
          <path
             sodipodi:type="arc"
             style="fill:#cc0000;fill-opacity:1;fill-rule:nonzero;stroke:#cc0000;stroke-width:6;stroke-linejoin:round;stroke-miterlimit:4;stroke-opacity:1;stroke-dasharray:none"
             id="path11164"
             sodipodi:cx="553.05853"
             sodipodi:cy="346.26556"
             sodipodi:rx="36.870567"
             sodipodi:ry="27.274118"
             d="m 589.9291,346.26556 c 0,15.06308 -16.50752,27.27412 -36.87057,27.27412 -20.36305,0 -36.87056,-12.21104 -36.87056,-27.27412 0,-15.06308 16.50751,-27.27411 36.87056,-27.27411 20.36305,0 36.87057,12.21103 36.87057,27.27411 z"
             transform="matrix(0.73966749,0,0,0.64226903,139.93851,115.74365)" />
        </g>
        <g
           id="g11166"
           transform="translate(-391.42857,-100.71429)">
          <path
             transform="translate(-5.1120388,13.704494)"
             style="fill:#ef2929;fill-opacity:1;fill-rule:nonzero;stroke:#a40000;stroke-width:6;stroke-linejoin:round;stroke-miterlimit:4;stroke-opacity:1"
             d="m 589.9291,346.26556 c 0,15.06308 -16.50752,27.27412 -36.87057,27.27412 -20.36305,0 -36.87056,-12.21104 -36.87056,-27.27412 0,-7.53154 -1.23027,-24.35007 5.44199,-29.28571 17.42594,0.81561 52.07396,-5.55595 65,2.85714 6.67226,4.93565 3.29914,18.89703 3.29914,26.42857 z"
             id="path11168"
             inkscape:connector-curvature="0"
             sodipodi:nodetypes="sssccs" />
          <path
             style="fill:#cc0000;fill-opacity:1;fill-rule:nonzero;stroke:#cc0000;stroke-width:4.40143442;stroke-linejoin:round;stroke-miterlimit:4;stroke-opacity:1"
             d="m 521.4375,366.34375 c 4.17733,7.03391 14.40626,12 26.375,12 10.7601,0 20.12108,-4.01514 24.9375,-9.9375 -5.88315,3.70391 -14.56511,6.0625 -24.25,6.0625 -11.38536,0 -21.36723,-3.24435 -27.0625,-8.125 z"
             id="path11170"
             inkscape:connector-curvature="0" />
          <path
             sodipodi:type="arc"
             style="fill:#ef2929;fill-opacity:1;fill-rule:nonzero;stroke:#a40000;stroke-width:6;stroke-linejoin:round;stroke-miterlimit:4;stroke-opacity:1;stroke-dasharray:none"
             id="path11172"
             sodipodi:cx="553.05853"
             sodipodi:cy="346.26556"
             sodipodi:rx="36.870567"
             sodipodi:ry="27.274118"
             d="m 589.9291,346.26556 c 0,15.06308 -16.50752,27.27412 -36.87057,27.27412 -20.36305,0 -36.87056,-12.21104 -36.87056,-27.27412 0,-15.06308 16.50751,-27.27411 36.87056,-27.27411 20.36305,0 36.87057,12.21103 36.87057,27.27411 z"
             transform="translate(-4.0406102,-8.0812203)" />
          <path
             transform="matrix(0.73966749,0,0,0.64226903,139.93851,115.74365)"
             d="m 589.9291,346.26556 c 0,15.06308 -16.50752,27.27412 -36.87057,27.27412 -20.36305,0 -36.87056,-12.21104 -36.87056,-27.27412 0,-15.06308 16.50751,-27.27411 36.87056,-27.27411 20.36305,0 36.87057,12.21103 36.87057,27.27411 z"
             sodipodi:ry="27.274118"
             sodipodi:rx="36.870567"
             sodipodi:cy="346.26556"
             sodipodi:cx="553.05853"
             id="path11174"
             style="fill:#cc0000;fill-opacity:1;fill-rule:nonzero;stroke:#cc0000;stroke-width:6;stroke-linejoin:round;stroke-miterlimit:4;stroke-opacity:1;stroke-dasharray:none"
             sodipodi:type="arc" />
        </g>
        <g
           transform="translate(-340,-195)"
           id="g11176">
          <path
             sodipodi:nodetypes="sssccs"
             inkscape:connector-curvature="0"
             id="path11178"
             d="m 589.9291,346.26556 c 0,15.06308 -16.50752,27.27412 -36.87057,27.27412 -20.36305,0 -36.87056,-12.21104 -36.87056,-27.27412 0,-7.53154 -1.23027,-24.35007 5.44199,-29.28571 17.42594,0.81561 52.07396,-5.55595 65,2.85714 6.67226,4.93565 3.29914,18.89703 3.29914,26.42857 z"
             style="fill:#ef2929;fill-opacity:1;fill-rule:nonzero;stroke:#a40000;stroke-width:6;stroke-linejoin:round;stroke-miterlimit:4;stroke-opacity:1"
             transform="translate(-5.1120388,13.704494)" />
          <path
             inkscape:connector-curvature="0"
             id="path11180"
             d="m 521.4375,366.34375 c 4.17733,7.03391 14.40626,12 26.375,12 10.7601,0 20.12108,-4.01514 24.9375,-9.9375 -5.88315,3.70391 -14.56511,6.0625 -24.25,6.0625 -11.38536,0 -21.36723,-3.24435 -27.0625,-8.125 z"
             style="fill:#cc0000;fill-opacity:1;fill-rule:nonzero;stroke:#cc0000;stroke-width:4.40143442;stroke-linejoin:round;stroke-miterlimit:4;stroke-opacity:1" />
          <path
             transform="translate(-4.0406102,-8.0812203)"
             d="m 589.9291,346.26556 c 0,15.06308 -16.50752,27.27412 -36.87057,27.27412 -20.36305,0 -36.87056,-12.21104 -36.87056,-27.27412 0,-15.06308 16.50751,-27.27411 36.87056,-27.27411 20.36305,0 36.87057,12.21103 36.87057,27.27411 z"
             sodipodi:ry="27.274118"
             sodipodi:rx="36.870567"
             sodipodi:cy="346.26556"
             sodipodi:cx="553.05853"
             id="path11182"
             style="fill:#ef2929;fill-opacity:1;fill-rule:nonzero;stroke:#a40000;stroke-width:6;stroke-linejoin:round;stroke-miterlimit:4;stroke-opacity:1;stroke-dasharray:none"
             sodipodi:type="arc" />
          <path
             sodipodi:type="arc"
             style="fill:#cc0000;fill-opacity:1;fill-rule:nonzero;stroke:#cc0000;stroke-width:6;stroke-linejoin:round;stroke-miterlimit:4;stroke-opacity:1;stroke-dasharray:none"
             id="path11184"
             sodipodi:cx="553.05853"
             sodipodi:cy="346.26556"
             sodipodi:rx="36.870567"
             sodipodi:ry="27.274118"
             d="m 589.9291,346.26556 c 0,15.06308 -16.50752,27.27412 -36.87057,27.27412 -20.36305,0 -36.87056,-12.21104 -36.87056,-27.27412 0,-15.06308 16.50751,-27.27411 36.87056,-27.27411 20.36305,0 36.87057,12.21103 36.87057,27.27411 z"
             transform="matrix(0.73966749,0,0,0.64226903,139.93851,115.74365)" />
        </g>
        <g
           id="g11186"
           transform="translate(-214.28571,-162.85714)">
          <path
             transform="translate(-5.1120388,13.704494)"
             style="fill:#ef2929;fill-opacity:1;fill-rule:nonzero;stroke:#a40000;stroke-width:6;stroke-linejoin:round;stroke-miterlimit:4;stroke-opacity:1"
             d="m 589.9291,346.26556 c 0,15.06308 -16.50752,27.27412 -36.87057,27.27412 -20.36305,0 -36.87056,-12.21104 -36.87056,-27.27412 0,-7.53154 -1.23027,-24.35007 5.44199,-29.28571 17.42594,0.81561 52.07396,-5.55595 65,2.85714 6.67226,4.93565 3.29914,18.89703 3.29914,26.42857 z"
             id="path11188"
             inkscape:connector-curvature="0"
             sodipodi:nodetypes="sssccs" />
          <path
             style="fill:#cc0000;fill-opacity:1;fill-rule:nonzero;stroke:#cc0000;stroke-width:4.40143442;stroke-linejoin:round;stroke-miterlimit:4;stroke-opacity:1"
             d="m 521.4375,366.34375 c 4.17733,7.03391 14.40626,12 26.375,12 10.7601,0 20.12108,-4.01514 24.9375,-9.9375 -5.88315,3.70391 -14.56511,6.0625 -24.25,6.0625 -11.38536,0 -21.36723,-3.24435 -27.0625,-8.125 z"
             id="path11190"
             inkscape:connector-curvature="0" />
          <path
             sodipodi:type="arc"
             style="fill:#ef2929;fill-opacity:1;fill-rule:nonzero;stroke:#a40000;stroke-width:6;stroke-linejoin:round;stroke-miterlimit:4;stroke-opacity:1;stroke-dasharray:none"
             id="path11192"
             sodipodi:cx="553.05853"
             sodipodi:cy="346.26556"
             sodipodi:rx="36.870567"
             sodipodi:ry="27.274118"
             d="m 589.9291,346.26556 c 0,15.06308 -16.50752,27.27412 -36.87057,27.27412 -20.36305,0 -36.87056,-12.21104 -36.87056,-27.27412 0,-15.06308 16.50751,-27.27411 36.87056,-27.27411 20.36305,0 36.87057,12.21103 36.87057,27.27411 z"
             transform="translate(-4.0406102,-8.0812203)" />
          <path
             transform="matrix(0.73966749,0,0,0.64226903,139.93851,115.74365)"
             d="m 589.9291,346.26556 c 0,15.06308 -16.50752,27.27412 -36.87057,27.27412 -20.36305,0 -36.87056,-12.21104 -36.87056,-27.27412 0,-15.06308 16.50751,-27.27411 36.87056,-27.27411 20.36305,0 36.87057,12.21103 36.87057,27.27411 z"
             sodipodi:ry="27.274118"
             sodipodi:rx="36.870567"
             sodipodi:cy="346.26556"
             sodipodi:cx="553.05853"
             id="path11194"
             style="fill:#cc0000;fill-opacity:1;fill-rule:nonzero;stroke:#cc0000;stroke-width:6;stroke-linejoin:round;stroke-miterlimit:4;stroke-opacity:1;stroke-dasharray:none"
             sodipodi:type="arc" />
        </g>
        <g
           transform="translate(-82.857138,-132.14285)"
           id="g11196">
          <path
             sodipodi:nodetypes="sssccs"
             inkscape:connector-curvature="0"
             id="path11198"
             d="m 589.9291,346.26556 c 0,15.06308 -16.50752,27.27412 -36.87057,27.27412 -20.36305,0 -36.87056,-12.21104 -36.87056,-27.27412 0,-7.53154 -1.23027,-24.35007 5.44199,-29.28571 17.42594,0.81561 52.07396,-5.55595 65,2.85714 6.67226,4.93565 3.29914,18.89703 3.29914,26.42857 z"
             style="fill:#ef2929;fill-opacity:1;fill-rule:nonzero;stroke:#a40000;stroke-width:6;stroke-linejoin:round;stroke-miterlimit:4;stroke-opacity:1"
             transform="translate(-5.1120388,13.704494)" />
          <path
             inkscape:connector-curvature="0"
             id="path11200"
             d="m 521.4375,366.34375 c 4.17733,7.03391 14.40626,12 26.375,12 10.7601,0 20.12108,-4.01514 24.9375,-9.9375 -5.88315,3.70391 -14.56511,6.0625 -24.25,6.0625 -11.38536,0 -21.36723,-3.24435 -27.0625,-8.125 z"
             style="fill:#cc0000;fill-opacity:1;fill-rule:nonzero;stroke:#cc0000;stroke-width:4.40143442;stroke-linejoin:round;stroke-miterlimit:4;stroke-opacity:1" />
          <path
             transform="translate(-4.0406102,-8.0812203)"
             d="m 589.9291,346.26556 c 0,15.06308 -16.50752,27.27412 -36.87057,27.27412 -20.36305,0 -36.87056,-12.21104 -36.87056,-27.27412 0,-15.06308 16.50751,-27.27411 36.87056,-27.27411 20.36305,0 36.87057,12.21103 36.87057,27.27411 z"
             sodipodi:ry="27.274118"
             sodipodi:rx="36.870567"
             sodipodi:cy="346.26556"
             sodipodi:cx="553.05853"
             id="path11202"
             style="fill:#ef2929;fill-opacity:1;fill-rule:nonzero;stroke:#a40000;stroke-width:6;stroke-linejoin:round;stroke-miterlimit:4;stroke-opacity:1;stroke-dasharray:none"
             sodipodi:type="arc" />
          <path
             sodipodi:type="arc"
             style="fill:#cc0000;fill-opacity:1;fill-rule:nonzero;stroke:#cc0000;stroke-width:6;stroke-linejoin:round;stroke-miterlimit:4;stroke-opacity:1;stroke-dasharray:none"
             id="path11204"
             sodipodi:cx="553.05853"
             sodipodi:cy="346.26556"
             sodipodi:rx="36.870567"
             sodipodi:ry="27.274118"
             d="m 589.9291,346.26556 c 0,15.06308 -16.50752,27.27412 -36.87057,27.27412 -20.36305,0 -36.87056,-12.21104 -36.87056,-27.27412 0,-15.06308 16.50751,-27.27411 36.87056,-27.27411 20.36305,0 36.87057,12.21103 36.87057,27.27411 z"
             transform="matrix(0.73966749,0,0,0.64226903,139.93851,115.74365)" />
        </g>
        <g
           id="g11206"
           transform="translate(44.285719,-100.71428)">
          <path
             transform="translate(-5.1120388,13.704494)"
             style="fill:#ef2929;fill-opacity:1;fill-rule:nonzero;stroke:#a40000;stroke-width:6;stroke-linejoin:round;stroke-miterlimit:4;stroke-opacity:1"
             d="m 589.9291,346.26556 c 0,15.06308 -16.50752,27.27412 -36.87057,27.27412 -20.36305,0 -36.87056,-12.21104 -36.87056,-27.27412 0,-7.53154 -1.23027,-24.35007 5.44199,-29.28571 17.42594,0.81561 52.07396,-5.55595 65,2.85714 6.67226,4.93565 3.29914,18.89703 3.29914,26.42857 z"
             id="path11208"
             inkscape:connector-curvature="0"
             sodipodi:nodetypes="sssccs" />
          <path
             style="fill:#cc0000;fill-opacity:1;fill-rule:nonzero;stroke:#cc0000;stroke-width:4.40143442;stroke-linejoin:round;stroke-miterlimit:4;stroke-opacity:1"
             d="m 521.4375,366.34375 c 4.17733,7.03391 14.40626,12 26.375,12 10.7601,0 20.12108,-4.01514 24.9375,-9.9375 -5.88315,3.70391 -14.56511,6.0625 -24.25,6.0625 -11.38536,0 -21.36723,-3.24435 -27.0625,-8.125 z"
             id="path11210"
             inkscape:connector-curvature="0" />
          <path
             sodipodi:type="arc"
             style="fill:#ef2929;fill-opacity:1;fill-rule:nonzero;stroke:#a40000;stroke-width:6;stroke-linejoin:round;stroke-miterlimit:4;stroke-opacity:1;stroke-dasharray:none"
             id="path11212"
             sodipodi:cx="553.05853"
             sodipodi:cy="346.26556"
             sodipodi:rx="36.870567"
             sodipodi:ry="27.274118"
             d="m 589.9291,346.26556 c 0,15.06308 -16.50752,27.27412 -36.87057,27.27412 -20.36305,0 -36.87056,-12.21104 -36.87056,-27.27412 0,-15.06308 16.50751,-27.27411 36.87056,-27.27411 20.36305,0 36.87057,12.21103 36.87057,27.27411 z"
             transform="translate(-4.0406102,-8.0812203)" />
          <path
             transform="matrix(0.73966749,0,0,0.64226903,139.93851,115.74365)"
             d="m 589.9291,346.26556 c 0,15.06308 -16.50752,27.27412 -36.87057,27.27412 -20.36305,0 -36.87056,-12.21104 -36.87056,-27.27412 0,-15.06308 16.50751,-27.27411 36.87056,-27.27411 20.36305,0 36.87057,12.21103 36.87057,27.27411 z"
             sodipodi:ry="27.274118"
             sodipodi:rx="36.870567"
             sodipodi:cy="346.26556"
             sodipodi:cx="553.05853"
             id="path11214"
             style="fill:#cc0000;fill-opacity:1;fill-rule:nonzero;stroke:#cc0000;stroke-width:6;stroke-linejoin:round;stroke-miterlimit:4;stroke-opacity:1;stroke-dasharray:none"
             sodipodi:type="arc" />
        </g>
      </g>
    </g>
  </g>
</svg>
